<svg viewBox="0 0 178 109" preserveAspectRatio="none" fill="none" xmlns="http://www.w3.org/2000/svg">

  <!-- УВЕЛИЧИЛИ РАМКУ внутри viewBox -->
  <!-- pX=12, pY=10 → scaleX=(178+24)/178=1.134831, scaleY=(109+20)/109=1.183486 -->
  <g transform="translate(-28,-32.9) scale(1.323831,1.597486)">


<path d="M100.779 88.4596C85.5012 88.4724 68.7744 88.5496 53.4351 88.4492C51.552 88.437 51.6806 88.2691 51.1523 88.2469C49.708 88.1857 48.8384 88.3838 47.7857 88.3693C42.668 88.2993 37.8806 88.2708 32.86 88.2072C32.5461 88.2033 32.2604 88.1976 32 88.1905C29.5413 88.0689 29.0234 87.5783 28.8295 87.4154C28.6434 87.2045 28.7745 87.1215 27.883 86.733C26.0744 85.8408 25.9687 85.7279 26.0028 85.9713C26.0533 86.1847 26.3702 86.6173 25.6164 86.2538C22.1576 84.0962 19.9716 80.0411 20.0756 76C20.0876 75.3405 20.0998 74.6815 20.112 74.0233C20.1544 74.681 20.1963 75.3389 20.237 76C20.2572 76.3866 20.2957 76.7704 20.3527 77.1521C20.319 76.784 20.3044 76.3856 20.3129 76C20.3508 74.5007 20.4477 73.2449 20.5936 75.6577C20.6425 75.0072 20.6998 74.3999 20.7477 73.7315C20.4998 73.5482 20.4799 70.4365 20.3329 70.152C20.186 69.8681 20.2197 71.6176 20.2069 71.6068C20.0238 71.4908 20.2741 64.3143 20.2945 63.7968C20.3488 62.4286 20.6561 63.6282 20.6363 62.4642C20.6025 60.4624 19.9773 61.796 20.8084 59.0861C20.5384 58.0081 20.6786 57.914 20.6973 56.5489C20.6996 56.3692 20.5433 56.5086 20.5392 56.4296C20.4232 54.3633 20.7139 55.9516 20.7297 55.9408C20.9972 55.7532 20.8783 53.5358 20.9039 53.0687C21.2235 47.2071 21.4399 42.9122 21.514 36.7271C21.5245 35.8287 21.479 33.6955 21.4618 32C21.4515 31.1266 21.5667 30.3669 21.6697 29.932C22.0173 28.6338 22.0391 29.3839 22.3237 28.7552C22.2594 27.6044 22.6069 26.3641 24.5466 24.729C24.9921 23.8473 25.0419 24.0463 26.5014 22.9998C27.6836 22.1121 30.2775 20.917 32 21.3385C30.0893 21.4048 30.2584 21.5102 28.2858 22.2546C27.9635 22.3732 26.0799 23.2007 24.8064 24.5577C23.4913 25.8714 22.857 27.4622 23.1296 27.2918C23.3544 27.0997 24.5984 25.1432 24.7397 25.1341C25.2407 24.9034 24.4952 25.944 23.8503 26.8405C23.9653 26.5853 24.1253 26.2866 24.2799 26.0244C22.6581 28.0152 24.3845 26.9442 22.8191 28.3236C22.6389 28.5123 22.5718 28.3846 22.3375 28.7351C22.3518 28.8267 22.6162 28.3962 22.4957 28.8038C22.3683 29.2114 21.9816 29.9762 22.1361 30.1321C22.3215 30.3481 22.6631 28.623 22.7642 28.5126C22.7633 28.5107 22.7624 28.5088 22.7614 28.507C23.3008 27.4681 22.4652 29.7462 22.5314 29.8802C22.5465 30.6375 22.7252 30.1695 22.7375 31.2518C22.7449 31.4359 22.7414 31.7 22.7476 32C22.7619 32.7581 22.7454 33.7128 22.7621 34.1467C22.7867 34.761 22.9062 33.8053 22.9318 34.2186C22.9575 34.6319 22.8667 35.1465 22.8964 35.6317C22.9095 35.8393 23.0428 35.8287 23.0475 35.9292C23.0988 37.0072 22.8215 36.3001 22.8384 37.2776C22.8497 37.9109 23.1081 40.0364 23.1851 38.5714C23.2119 39.2756 23.2316 39.9623 23.2526 40.663C23.2922 40.221 23.3192 39.7644 23.3658 39.3333C23.3023 40.6518 23.5304 41.2483 23.5474 42.0746C23.5643 42.9012 23.2906 43.6422 23.4241 44.5514C23.7081 46.4922 23.5769 41.6865 23.6276 41.0899C23.6476 40.8573 23.862 41.7502 23.8681 41.8877C23.8949 42.4985 23.7416 43.221 23.7485 43.6918C23.7741 45.3773 23.9765 46.4094 24.0173 48.0158C24.1561 53.4859 24.2687 60.2717 24.3131 65.4543C24.3294 67.3843 24.1019 68.5456 24.1083 69.4117C24.1235 71.4382 24.3217 71.6865 24.3323 73.454C24.3371 74.2311 24.3254 75.1019 24.3056 76C24.229 77.6644 24.8152 79.4211 25.5036 80.4294C26.1608 81.4502 27.1506 81.9877 27.3901 82.1569C28.6561 83.0847 30.3104 83.6583 32 83.6405C35.7271 83.6244 39.438 83.6256 42.3044 83.6241C44.4461 83.6229 45.4632 83.8385 45.9054 83.8322C47.8065 83.8054 47.2967 83.621 48.8379 83.6396C49.6705 83.6495 49.8262 83.8265 49.9376 83.8334C50.9188 83.8918 51.1141 83.6607 51.8797 83.6531C56.2821 83.6094 60.5227 83.7606 64.882 83.7828C65.1982 83.7845 65.1702 83.8869 65.375 83.8817C66.2547 83.8565 65.8458 83.6953 66.7651 83.6836C68.6771 83.6585 70.6405 83.6852 72.6675 83.7056C72.8683 83.7076 72.9586 83.8392 73.4179 83.8392C73.8779 83.8392 74.2267 83.7145 74.9489 83.7214C76.8357 83.7395 78.6978 83.8887 80.696 83.8969C81.0267 83.8981 81.4364 83.7395 81.9323 83.7413C83.4885 83.7465 85.7926 83.8904 87.126 83.8957C91.525 83.912 95.5834 83.8218 99.7272 83.8206C100.701 83.8207 101.564 83.9676 102.07 83.9711C103.213 83.9786 102.351 83.8398 103.508 83.8392C112.96 83.8357 122.449 83.8988 132.012 83.8878C135.768 83.8837 140.34 83.7401 143.969 83.7797C144.397 83.7845 144.725 83.8033 145 83.8279C145.548 83.8836 145.846 83.9615 146.449 83.8595C147.932 83.5218 148.123 83.185 149.408 82.3411C150.408 81.637 151.573 80.6828 152.138 79.4666C152.666 78.2507 152.611 77.5899 152.65 76.1316C152.65 76.0884 152.649 76.0446 152.649 76C152.635 74.4368 152.735 72.3287 152.718 70.6719C152.586 57.7257 152.496 44.9423 152.572 32C152.6 29.8722 151.691 27.7634 150.098 26.3011C148.777 25.0715 146.932 24.3073 145 24.2965C141.57 24.2693 138.081 24.2237 134.734 24.0878C134.192 24.0656 135.022 23.8353 133.282 23.8837C132.348 23.9099 131.043 24.1084 128.884 24.1183C116.042 24.1767 102.344 23.7521 89.2873 23.8361C69.7287 23.9626 49.4586 25.6019 32.4625 23.2031C31.6288 23.0853 32.0809 22.5081 32.5804 22.344C33.0439 22.4613 33.4725 22.6005 33.9575 22.7328C34.5684 22.0115 34.4607 22.1994 36.7247 22.2641C38.1186 22.3043 37.0052 21.9958 37.7482 21.9083C38.7114 21.7951 43.2338 21.4388 42.3641 21.9165C42.6444 21.8337 42.9032 21.7543 43.1763 21.6733C46.4503 21.6009 49.6313 21.4813 52.8335 21.3443C53.3866 21.3203 53.4121 21.1704 53.9835 21.1465C55.518 21.0812 56.7363 21.1797 58.3176 21.1645C59.1766 21.1564 59.2957 20.9832 60.4207 20.9943C61.5449 21.0054 61.5203 21.2392 63.0542 20.9851C62.055 20.6917 66.5119 20.9046 68.097 20.8865C68.327 20.8842 70.2136 20.6206 71.2164 20.6509C72.2225 20.6807 73.7501 20.849 75.3061 20.7535C76.0356 20.7086 76.4783 20.5033 77.2654 20.4916C77.8189 20.4835 78.4837 20.6659 79.1845 20.6735C79.885 20.6811 81.4008 20.5313 81.6786 20.5289C82.6811 20.5189 81.5751 20.6472 82.2608 20.6537C85.5707 20.6828 89.4165 20.7516 92.6798 20.6653C93.081 20.6548 92.5259 20.5037 92.5792 20.4986C95.3028 20.3132 93.8491 20.5101 94.5845 20.6454C95.2969 20.7763 100.51 20.7049 100.549 20.4422C100.709 20.7712 101.868 20.5199 102.169 20.5102C103.34 20.4729 103.111 20.7576 104.246 20.6695C104.663 20.6375 103.851 20.4451 104.299 20.4507C105.406 20.4647 106.402 20.7738 107.876 20.8047C108.232 20.8123 108.347 20.6746 108.98 20.6793C109.613 20.684 112.268 20.8525 111.043 20.5621C112.653 20.7948 112.977 20.6671 114.849 20.6735C115.323 20.6755 115.934 20.8973 116.944 20.8285C117.285 20.8052 117.275 20.5913 117.789 20.5896C118.964 20.585 120.071 20.8064 121.562 20.8151C124.351 20.832 127.32 20.6764 130.228 20.7318C131.018 20.747 130.821 20.962 131.97 20.9662C132.139 20.9662 133.523 20.7802 134.317 20.7977C134.795 20.8082 137.272 20.9389 137.772 20.9494C138.598 20.9662 138.745 20.7583 139.198 20.7989C140.506 20.9162 139.456 21.2223 141.03 20.8035C141.548 21.0356 142.468 21.0124 142.763 21.2982C143.293 20.9882 143.979 21.28 145 21.184C145.011 21.1831 145.022 21.1821 145.034 21.1811C146.137 21.0728 147.212 20.6775 147.345 21.3758C147.89 21.3459 150.074 22.0564 150.396 22.295C151.392 22.8538 150.778 22.6857 151.49 23.1499C151.609 23.2411 151.575 23.023 152.31 23.6605C152.55 23.8669 153.527 24.7827 154.223 25.8637C154.942 26.9296 155.364 28.1045 155.4 28.2372C156.145 31.3161 154.815 26.6006 154.119 26.2099C154.085 26.0912 154.05 25.9737 154.007 25.8488C153.233 24.6967 153.497 25.5022 153.789 26.0351C154.089 26.5642 154.728 27.5224 154.822 28.0366C154.867 28.2898 154.519 28.2546 154.246 27.5737C154.482 28.3292 153.935 27.406 153.978 27.7277C154.005 27.8993 154.364 28.7692 154.57 29.6425C154.792 30.5118 154.874 31.3705 154.966 31.3754C154.937 30.7296 154.798 29.9336 154.625 29.3034C154.639 28.5488 156.007 29.8639 156.068 32C156.082 32.4548 156.055 32.9287 155.97 33.3944C155.654 35.1228 155.403 32.2734 155.668 36.3628C155.681 35.734 155.711 35.202 155.724 34.6306C155.964 34.5698 155.7 35.4967 155.777 35.9747C155.814 36.2043 155.984 34.7893 156.041 36.0178C155.697 37.0743 156.043 37.8873 156.047 39.659C155.985 39.1667 155.924 38.6737 155.863 38.1813C155.614 41.175 155.532 34.2214 155.393 40.0428C155.382 39.3423 155.385 38.6453 155.368 37.9412C155.242 38.2825 154.872 37.7364 154.794 38.0418C154.588 38.8431 154.712 40.0287 154.694 41.006C154.687 41.4337 154.587 41.1684 154.586 41.2044C154.575 41.7901 154.721 41.6608 154.731 42.1747C154.742 42.8214 154.6 44.6893 154.616 44.9922C154.658 45.7757 154.947 44.4711 154.968 44.5466C155.108 45.0461 154.992 46.0664 155.175 46.0128C155.049 43.5578 155.211 36.4826 155.513 42.8834C155.809 41.1187 156.217 41.6283 156.249 44.1656C156.276 46.2646 156.112 44.9102 155.933 46.0028C155.91 46.144 155.824 48.9552 155.951 49.0992C155.659 48.9865 155.4 49.9014 155.098 49.2875C155.054 49.1976 155.071 48.044 154.829 48.4465C154.707 48.6478 154.442 49.2253 154.286 49.1322C154.394 49.3694 154.516 49.6174 154.628 49.8582C154.66 51.5869 154.543 51.8325 154.342 52.7778C154.426 52.7346 154.779 51.8612 154.672 53.1874C154.665 53.2555 154.539 53.3143 154.476 53.9881C154.35 55.3501 154.311 55.6344 153.939 54.589C154.151 57.4096 153.736 58.0173 153.858 60.9097C154.336 60.3347 154.217 59.3178 154.125 56.6691C154.239 56.5541 154.352 56.5002 154.466 56.3816C154.209 59.907 154.235 58.1649 154.466 60.1622C154.522 60.651 154.462 63.2573 154.784 62.3875C154.86 62.1822 154.851 60.5631 154.97 60.7487C154.993 60.7847 155.051 62.7531 155.02 62.9266C154.639 65.1045 154.374 61.2125 154.513 67.2104C154.517 67.3756 154.656 67.4336 154.675 67.7566C154.711 68.3639 154.55 68.3715 154.587 68.9138C154.625 69.4564 154.842 70.2083 154.641 71.0241C154.276 72.5156 154.066 68.9973 154.26 67.4303C153.92 66.9775 153.817 72.5179 153.8 76C153.795 77.2485 153.531 78.1664 153.5 78.3379C153.179 79.636 153.334 79.2308 153.593 78.4538C153.851 77.6747 153.953 76.4887 154.013 76.3726C154.051 76.3104 154.365 76.3238 154.456 76C154.505 75.8154 154.488 75.5311 154.325 75.0822C154.189 74.7048 154.009 76.2821 153.934 75.3409C153.859 74.3993 154.068 74.7724 154.082 74.7041C154.132 74.4699 154.055 73.4684 154.084 73.3385C154.534 71.3402 155.214 71.5234 154.21 74.1722C154.437 75.3259 154.798 72.6778 154.952 74.1118C155.03 74.8366 155.02 75.4799 154.98 76C154.922 76.7314 154.737 77.1942 154.714 77.3165C154.425 78.5698 154.46 78.4746 154.555 78.4717C154.617 78.4549 154.781 78.5605 154.107 80.0148C153.28 81.5584 154.958 77.5626 153.213 81.1006C152.319 82.4888 151.993 82.7271 152.08 82.8029C152.148 82.8665 152.517 82.664 152.572 82.8809C152.598 82.9776 151.354 84.4837 153.104 82.4981C153.075 82.3788 153.061 82.1903 153.086 82.0061C153.523 81.5651 154.479 80.8571 154.639 80.5276C155.398 78.962 155.061 78.9562 155.583 78.0267C155.117 78.6758 155.557 77.5574 155.518 77.105C155.432 75.9866 155.288 76.6185 155.36 76C155.387 75.7188 155.448 75.1706 155.553 74.0543C155.4 74.5072 155.25 74.9168 155.098 75.3553C155.093 74.9385 155.088 74.5214 155.082 74.1047C155.419 73.4829 155.376 71.2686 155.715 73.2738C155.811 70.8625 155.737 69.8878 155.476 69.3594C155.426 69.2591 155.406 68.8968 155.401 68.4711C155.327 68.5516 155.1 68.6546 155.072 68.5875C154.827 67.9874 155.25 67.057 155.412 67.3742C155.42 67.0765 155.429 66.8407 155.433 66.7575C155.458 66.23 155.604 67.2642 155.654 66.8366C155.671 66.6957 155.639 65.2093 155.698 65.1806C156.08 65.0014 155.805 67.4474 156.026 62.5356C155.679 62.417 155.755 64.6984 155.387 64.1125C154.991 63.4836 155.522 62.2007 155.036 61.9203C155.116 61.8161 155.183 61.77 155.274 61.6803C155.062 59.6931 155.467 59.6668 155.556 59.0597C155.73 57.8808 155.704 52.4611 155.354 57.3275C155.319 56.6158 155.302 55.8893 155.271 55.1813C155.997 55.0196 155.708 55.4508 155.819 52.0403C155.843 51.2892 156.163 51.0447 155.784 50.3081C156.155 50.4082 155.931 48.1867 155.976 47.9793C156.269 46.6496 156.678 51.5869 156.02 52.22C156.276 53.0535 155.938 53.0505 155.983 53.9809C156.048 55.3251 156.113 55.5118 155.864 57.1075C156.216 58.6781 156.019 50.9589 156.485 55.6384C156.736 58.1542 156.927 67.1913 157.061 76C157.352 83.8488 149.372 88.6953 145 88.2581C144.107 88.2677 143.355 88.2756 142.776 88.282C131.258 88.4086 125.201 88.4913 114.854 88.4703C113.834 88.4685 106.129 88.5023 107.73 88.0958C107.96 88.0375 111.274 87.8829 108.431 87.5639C109.01 87.7523 107.338 87.8746 107.198 87.8944C103.981 88.3447 105.843 88.4549 100.779 88.4596ZM85.7676 84.8347C92.3767 84.9274 87.5213 84.6557 88.8942 84.0422C88.046 84.0404 87.2008 84.0387 86.3526 84.037C86.5754 84.0755 86.7954 84.1139 87.0182 84.1523C87.0191 84.1523 87.0201 84.1523 87.0211 84.1523C86.6042 84.3798 86.1844 84.6073 85.7676 84.8347ZM23.576 37.4343C23.6568 37.6922 23.7378 37.947 23.8168 38.2264C23.7918 39.0996 23.7671 39.9695 23.7421 40.8427C23.6872 40.7385 23.6318 40.6378 23.577 40.5336C23.5793 39.5006 23.5818 38.4709 23.576 37.4343ZM154.171 66.506C154.395 65.2697 153.995 65.3812 154.177 63.7388C153.881 63.94 153.592 64.1635 153.299 64.3756C153.343 65.6257 153.456 65.9099 153.383 67.2679C153.478 67.1098 153.574 66.948 153.67 66.7935C153.649 66.5673 153.626 66.3268 153.608 66.1078C153.874 65.7593 153.914 67.9294 154.171 66.5103C154.171 66.5089 154.171 66.5074 154.171 66.506ZM154.052 53.8372C154.09 53.1723 154.235 50.5382 154.112 50.1787C153.697 48.9604 153.961 56.3921 153.591 50.9147C153.533 50.9398 153.476 50.9148 153.418 50.9147C153.398 51.9138 153.38 52.91 153.364 53.9163C153.594 53.8624 153.821 53.8983 154.052 53.8372ZM109.672 84.8091C110.694 84.8411 115.565 84.6457 113.977 84.3828C113.51 84.3058 111.335 84.682 110.509 84.6657C109.973 84.6551 110.573 84.4488 109.517 84.5247C109.563 84.6156 109.592 84.7164 109.675 84.8085C109.674 84.8087 109.673 84.8089 109.672 84.8091ZM107.756 86.0093C108.812 85.9726 109.883 85.926 110.947 85.887C110.171 85.652 108.643 85.8029 108.554 85.4722C108.845 85.4472 109.132 85.4222 109.423 85.3972C109.646 85.4695 109.865 85.5418 110.084 85.6141C110.997 85.4345 110.444 85.3453 112.144 85.3972C111.117 84.8973 110.926 84.629 108.014 85.1347C108.564 84.8635 108.047 83.9798 106.433 84.6113C106.131 84.7286 107.392 84.8069 107.406 84.8256C107.6 85.0576 106.901 85.2057 107.109 85.4249C107.202 85.5241 107.971 85.5226 108.086 85.6602C108.139 85.7274 107.408 85.919 107.756 86.0093ZM105.65 84.8326C105.977 84.692 104.859 84.3585 103.889 84.4261C102.376 84.5311 104.762 84.8483 105.65 84.8326ZM23.5757 37.4286C23.5758 37.4305 23.5759 37.4324 23.576 37.4343C23.5757 37.4333 23.5754 37.4324 23.5751 37.4314C23.5753 37.4305 23.5755 37.4295 23.5757 37.4286ZM153.889 57.2657C153.77 56.4823 153.787 55.3228 153.597 55.4084C153.634 55.0274 153.671 54.6422 153.708 54.2613C153.651 54.2649 153.594 54.272 153.537 54.2756C153.502 55.422 153.466 56.5649 153.43 57.7113C153.583 57.5675 153.736 57.4346 153.889 57.2657ZM154.022 44.7766C154.041 43.3356 153.783 44.5437 153.658 44.2274C153.533 43.9112 153.635 42.6275 153.456 42.7784C153.449 43.6266 153.442 44.5113 153.435 45.3703C153.63 45.1438 153.828 44.9857 154.022 44.7737C154.022 44.7747 154.022 44.7756 154.022 44.7766ZM58.7941 84.6312C59.7715 84.6872 59.3727 84.8844 61.3026 84.6534C61.3011 84.6534 61.2997 84.6534 61.2983 84.6534C59.4619 84.4919 57.0977 84.348 55.071 84.5042C56.3106 84.7123 57.2561 84.5437 58.7941 84.6312ZM153.589 69.9244C153.745 70.3371 153.876 68.415 153.73 67.9909C153.495 67.3047 153.351 69.2954 153.589 69.9244ZM22.4357 78.981C21.6147 77.5578 21.5245 80.8965 23.9512 83.2064C24.118 83.4148 22.9891 81.7133 23.4348 82.137C23.4663 82.1877 24.147 83.0577 24.3942 83.1974C24.6299 83.3448 24.5446 83.0386 24.8973 83.2974C25.4855 83.7674 26.7806 84.919 27.3783 85.0175C27.4437 85.0411 26.6392 84.3443 26.6011 84.2932C25.7861 83.6229 24.8888 83.0936 24.7684 82.9684C24.1773 82.3469 24.4436 82.2936 24.3455 82.1015C24.1664 81.738 23.7076 81.2114 23.6899 81.1617C23.1838 80.0033 24.6702 82.4491 25.0748 82.6062C25.9675 83.1418 25.3306 82.5189 27.32 83.7511C27.5207 83.8758 29.8028 85.0985 27.0588 83.3017C28.4686 84.0696 29.0879 84.0813 29.0786 84.052C29.0797 83.9977 28.5016 83.7926 27.7754 83.3787C26.2479 82.6301 24.6118 80.5526 24.3862 80.0921C24.1201 79.6963 24.2779 80.4302 24.0605 80.2163C23.535 79.7248 23.1248 78.5942 22.8821 78.7777C22.3364 79.196 23.3127 80.6486 23.9046 81.6081C23.7254 81.5851 23.5896 81.6217 23.3534 81.4979C23.5259 81.5982 23.2183 81.0275 22.9542 80.3846C22.6808 79.7443 22.4682 79.0283 22.4368 78.9807C22.4365 78.9808 22.4361 78.9809 22.4357 78.981ZM37.6613 85.3065C39.2894 85.4937 39.1741 85.1021 40.6657 85.3261C41.981 84.9744 39.3866 84.998 39.0844 84.9782C37.7045 84.8895 37.7362 84.5071 36.3244 84.6248C36.8095 84.851 37.2049 85.0797 37.6613 85.3065ZM25.1296 82.0359C25.9356 82.6355 24.7615 81.3283 24.7818 81.2286C24.7266 80.8055 25.409 81.6479 25.9169 82.1763C26.4278 82.685 26.6092 83.1659 25.1296 82.0359ZM116.014 85.5971C116.567 85.6105 116.216 85.4206 116.704 85.3645C117.193 85.308 118.863 85.4704 118.822 85.3523C118.779 85.2339 115.717 84.9268 118.79 84.8604C118.686 84.7939 118.721 84.7443 118.671 84.6843C117.826 84.6825 116.974 84.6796 116.129 84.6779C116.593 84.8691 117.068 85.0704 117.514 85.2553C117.039 85.4075 116.773 85.2122 116.747 85.2122C116.747 85.2124 116.747 85.2126 116.747 85.2128C115.863 85.2282 114.772 85.5672 116.014 85.5971ZM72.4591 85.001C72.2938 85.4764 73.5983 84.9455 74.1338 84.8866C74.6692 84.8279 75.405 85.0039 75.1286 84.7993C74.2624 84.6582 72.4771 84.948 72.4591 85.0017C72.4591 85.0014 72.4591 85.0012 72.4591 85.001ZM46.5063 85.3056C47.871 85.1902 47.6543 85.0666 49.3238 85.2076C49.2591 85.0927 49.1944 84.9753 49.1297 84.8622C47.8036 84.8599 47.8968 85.1934 46.3625 85.0593C46.111 85.0372 46.6496 84.7707 45.5144 84.8564C45.8448 84.9986 46.1795 85.1564 46.5063 85.3056ZM53.2698 84.8796C51.7028 84.8971 50.46 85.8269 53.346 85.4075C53.7737 85.3449 54.4482 84.8662 53.2698 84.8796ZM101.56 85.6205C104.226 85.6474 101.197 85.4973 100.503 85.3544C106.709 85.2401 99.803 85.3935 99.1838 84.9183C98.4256 85.0537 97.0065 85.3631 98.583 85.446C99.2407 85.4804 99.0006 85.3389 99.0401 85.3395C100.251 85.3745 100.105 85.606 101.56 85.6205ZM34.8323 85.3294C34.9329 85.3224 34.7754 85.1619 35.0953 85.1298C35.4156 85.098 36.1404 85.2103 36.2123 85.1118C36.2838 85.0127 34.8298 84.9358 34.3838 85.0081C33.9381 85.081 33.923 85.3912 34.8323 85.3294ZM45.0616 85.7249C46.3933 85.6094 44.2156 85.0181 43.926 85.0209C41.3814 85.0518 45.1371 85.5377 45.0616 85.7249ZM95.3701 86.6249C98.5832 86.3245 96.2328 85.8026 94.2201 85.4899C93.9543 85.5535 93.6816 85.6171 93.4194 85.6801C94.627 85.2939 96.7433 84.9123 92.0351 85.2488C94.6122 85.3397 92.4542 85.4434 92.4376 85.4652C92.1537 86.1745 95.9711 85.8451 95.3673 86.6249C95.3682 86.6249 95.3692 86.6249 95.3701 86.6249ZM30.6306 85.0588C29.3161 85.042 26.287 83.4575 27.5378 84.4958C28.5515 84.8661 29.5995 85.0508 30.6306 85.0588ZM148.101 86.1217C149.309 85.9272 150.376 85.4293 151.57 84.5034C150.32 85.0898 151.041 84.5482 151.35 84.2314C151.825 83.7504 150.534 84.7326 150.505 84.6964C150.389 84.4476 151.268 83.9812 149.26 85.066C149.735 84.7483 150.17 84.3966 150.573 84.0126C149.146 84.9345 148.657 84.8885 147.621 85.0237C148.729 85.1546 147.393 85.3689 146.183 85.7383C145.552 85.9396 147.464 86.2716 148.105 86.1204C148.104 86.1208 148.102 86.1213 148.101 86.1217ZM98.6908 86.7204C99.0214 86.6347 99.324 86.5187 99.6439 86.4207C99.9925 86.4114 100.342 86.4032 100.69 86.3939C100.733 86.4697 100.769 86.549 100.82 86.6218C101.279 86.6439 101.1 86.5384 101.237 86.5285C101.237 86.5289 101.237 86.5293 101.237 86.5297C103.195 86.3898 103.996 86.4055 105.53 86.6398C105.53 86.4076 105.53 86.1754 105.53 85.9431C105.186 85.9653 104.837 85.9869 104.493 86.0084C104.309 86.1332 104.125 86.2581 103.942 86.3829C103.543 86.3141 103.148 86.2457 102.749 86.1769C102.429 86.2218 102.045 86.269 101.768 86.3127C100.176 85.6636 103.795 86.1045 103.827 85.8351C103.848 85.6619 100.205 85.6694 99.6798 85.789C99.6043 85.8065 100.392 86.2899 99.0588 86.038C98.8503 85.9984 98.777 84.9526 97.3395 85.7994C97.1347 85.9195 97.85 86.5692 98.6908 86.7204ZM111.922 87.0576C109.873 86.3887 117.434 87.096 114.171 86.5455C115.102 86.2382 114.929 86.2422 113.992 85.9694C113.909 85.9449 114.557 85.8605 114.502 85.8497C113.625 85.6993 112.569 85.779 112.561 85.5055C112.324 85.5201 112.101 85.533 111.864 85.5476C112.852 85.8054 111.281 85.9786 110.674 86.1961C110.397 86.2946 111.033 86.325 110.8 86.4113C110.714 86.4427 109.826 86.3799 109.79 86.4702C109.714 86.6743 110.272 86.9502 111.217 87.1007C111.217 87.1009 111.217 87.1011 111.217 87.1013C111.454 87.0879 111.685 87.0716 111.922 87.0576ZM68.1379 86.5019C67.7893 86.1321 66.3919 86.0263 69.0766 85.8455C68.9438 85.7726 68.807 85.7004 68.6741 85.6276C68.2214 85.634 67.7828 85.6404 67.3229 85.6462C65.9428 86.7356 63.4238 85.5062 65.0372 86.2788C65.2133 86.3628 66.2873 86.269 65.227 86.497C65.2284 86.4972 65.2299 86.4974 65.2313 86.4976C66.7116 86.4276 66.8981 86.2966 68.1379 86.5019ZM78.0467 86.244C81.461 85.466 73.3287 85.8099 74.6872 86.0164C74.8094 86.035 78.3127 85.8678 78.0467 86.244ZM50.6492 86.9212C52.1798 86.9346 52.2813 86.5148 52.1269 86.3637C51.9724 86.212 50.9124 86.3653 50.7757 86.3414C50.33 86.2626 51.2753 86.2106 50.6966 86.1027C50.505 86.0677 47.8388 85.918 47.7167 85.9361C47.0383 86.0365 48.03 86.3829 47.836 86.4226C47.2035 86.5525 46.3447 86.3724 46.1613 86.5565C45.7661 86.9495 47.3672 86.537 47.6376 86.5303C48.4535 86.5116 48.3822 86.7328 48.9932 86.7772C49.6037 86.8214 50.0027 86.7456 50.5414 86.7613C50.7206 86.7665 50.5716 86.9198 50.6492 86.9212ZM55.7107 86.0347C54.1119 86.3525 58.0046 86.6981 58.4664 86.6237C59.8249 86.4026 56.4762 85.883 55.7107 86.0347ZM106.793 86.0481C105.33 86.2785 108.737 86.4649 109.711 86.3722C109.53 86.2765 107.296 85.9688 106.793 86.0481ZM94.4789 86.6237C95.8231 86.5519 94.0405 86.0329 92.9192 86.0411C92.2618 86.3822 92.8804 86.3146 93.6135 86.3286C94.3457 86.3427 93.4302 86.6795 94.4789 86.6237ZM34.0459 86.5419C34.336 86.5473 39.0099 86.2654 36.3244 86.1482C36.1195 86.1395 32.8478 86.1891 32.5998 86.2416C32.1008 86.3477 33.2985 86.5267 34.0459 86.5419ZM88.0316 87.1275C88.7432 86.8325 89.4433 86.8364 88.7892 86.49C88.7883 86.49 88.7873 86.49 88.7863 86.49C90.5868 86.3839 90.6666 87.0926 91.0547 87.0775C92.4123 87.0243 91.1261 86.5198 91.9776 86.3542C89.9974 86.5099 90.5653 86.1698 89.0595 86.1482C88.7216 86.1435 87.3697 86.3466 87.172 86.4732C86.9747 86.5998 87.6651 86.9794 88.0316 87.1275ZM27.3275 85.5343C28.831 86.3671 30.4038 86.222 28.2981 85.48C27.3183 85.0483 26.4594 84.9905 27.3275 85.5343ZM155.735 51.5616C155.61 51.8024 155.485 52.0504 155.361 52.3091C155.33 51.7271 155.299 51.1446 155.268 50.5625C155.308 51.0226 155.347 51.4832 155.386 51.9469C155.43 50.8543 155.658 50.3547 155.735 51.5587C155.735 51.5597 155.735 51.5607 155.735 51.5616ZM141.373 21.1694C140.884 21.0487 139.921 21.4225 140.043 21.4517C140.963 21.669 142.051 21.3368 141.373 21.1694ZM108.953 87.1837C110.77 87.236 109.521 86.6281 108.407 86.5864C109.088 86.7027 107.922 87.1539 108.953 87.1837ZM154.119 26.2099C154.17 26.3868 154.216 26.5646 154.267 26.7597C154.023 26.1938 153.991 26.0809 154.119 26.2099ZM34.7891 87.0787C35.0666 87.1253 37.1182 87.1638 37.3953 87.1062C37.9704 86.9848 36.3705 86.6492 35.4288 86.7525C35.3246 86.7635 34.5131 87.032 34.7935 87.0787C34.792 87.0787 34.7906 87.0787 34.7891 87.0787ZM155.968 49.1035C155.962 49.1067 155.957 49.105 155.951 49.0992C155.957 49.1013 155.962 49.1007 155.968 49.1035ZM100.533 20.4144C100.544 20.4238 100.55 20.4332 100.549 20.4422C100.544 20.4334 100.536 20.4241 100.533 20.4144ZM49.2591 87.5947C49.942 88.1739 51.5161 87.8659 50.2726 87.5795C50.203 87.5644 49.4247 87.5959 49.2591 87.5947Z" fill="#FFDB3B"/>
</g>
<defs>
<filter id="filter0_dd_55_40" x="0.0720825" y="0.414429" width="176.997" height="108.086" filterUnits="userSpaceOnUse" color-interpolation-filters="sRGB">
<feFlood flood-opacity="0" result="BackgroundImageFix"/>
<feColorMatrix in="SourceAlpha" type="matrix" values="0 0 0 0 0 0 0 0 0 0 0 0 0 0 0 0 0 0 127 0" result="hardAlpha"/>
<feOffset/>
<feGaussianBlur stdDeviation="6"/>
<feComposite in2="hardAlpha" operator="out"/>
<feColorMatrix type="matrix" values="0 0 0 0 1 0 0 0 0 0.859362 0 0 0 0 0.232886 0 0 0 1 0"/>
<feBlend mode="normal" in2="BackgroundImageFix" result="effect1_dropShadow_55_40"/>
<feColorMatrix in="SourceAlpha" type="matrix" values="0 0 0 0 0 0 0 0 0 0 0 0 0 0 0 0 0 0 127 0" result="hardAlpha"/>
<feOffset/>
<feGaussianBlur stdDeviation="10"/>
<feComposite in2="hardAlpha" operator="out"/>
<feColorMatrix type="matrix" values="0 0 0 0 1 0 0 0 0 0.490714 0 0 0 0 0.254704 0 0 0 1 0"/>
<feBlend mode="normal" in2="effect1_dropShadow_55_40" result="effect2_dropShadow_55_40"/>
<feBlend mode="normal" in="SourceGraphic" in2="effect2_dropShadow_55_40" result="shape"/>
</filter>
</defs>
</svg>
