<svg viewBox="0.6 1 124.1 66.6" preserveAspectRatio="none" xmlns="http://www.w3.org/2000/svg">
<path d="M72.3611 67.9677C57.9748 67.978 42.2246 68.0396 27.7808 67.9594C26.0076 67.9496 26.1287 67.8153 25.6313 67.7975C24.2713 67.7486 23.4525 67.9071 22.4611 67.8954C18.8747 67.8538 15.4606 67.8305 12 67.8003C10.5999 67.7907 9.19013 67.5307 7.86159 67.0168C5.20932 65.8911 4.83021 65.0796 4.66785 64.8579C4.5375 64.579 4.73248 64.6115 4.08666 63.9177C1.84108 60.9858 3.42455 63.7511 2.41703 62.6471C1.08545 60.7116 0.372802 58.3422 0.408777 56C0.433799 54.2159 0.461613 52.4314 0.489589 50.6528C0.540427 51.5797 0.590186 52.5069 0.637294 53.4439C0.648498 51.7891 0.732541 49.4205 0.874844 52.1918C0.914039 51.5793 0.959874 51.0075 0.998135 50.378C0.799849 50.2055 0.783899 47.2755 0.666347 47.0076C0.548763 46.7403 0.575782 48.3876 0.565517 48.3774C0.419062 48.2682 0.619255 41.5107 0.635585 41.0234C0.679036 39.7351 0.924853 40.8646 0.909024 39.7686C0.881961 37.8836 0.38181 39.1394 1.04672 36.5877C0.830717 35.5726 0.942892 35.484 0.957852 34.1986C0.959719 34.0294 0.834653 34.1607 0.831387 34.0863C0.73856 32.1407 0.971133 33.6362 0.983731 33.626C1.19775 33.4494 1.10261 31.3615 1.12314 30.9216C1.37882 25.4022 1.55192 21.358 1.61117 15.534C1.61807 14.8444 1.59514 13.3819 1.57897 12C1.55775 10.8079 1.79268 9.68528 1.97058 9.13999C2.3833 7.9577 2.32462 8.64719 2.62289 8.07581C2.7014 7.01611 3.0978 5.91814 4.94948 4.45019C5.43114 3.67962 5.44706 3.84521 6.84606 2.92299C7.98706 2.14016 10.4054 1.1283 12 1.47079C10.2222 1.53148 10.3816 1.60982 8.5225 2.25813C8.21823 2.36188 6.44452 3.08813 5.19368 4.29506C3.90793 5.46182 3.2075 6.89935 3.45209 6.74548C3.65661 6.56693 4.94661 4.80262 5.07278 4.79619C5.53671 4.57942 4.76305 5.50797 4.11002 6.32961C4.23787 6.09771 4.40967 5.8273 4.57314 5.59098C2.96456 7.40084 4.53681 6.42228 3.07629 7.68579C2.90711 7.85748 2.8664 7.73882 2.63635 8.05764C2.63763 8.14252 2.90147 7.74982 2.75776 8.12351C2.60772 8.49749 2.2165 9.19255 2.32548 9.34412C2.45002 9.55183 2.91124 7.95784 3.00987 7.85882C3.00932 7.85709 3.00877 7.85536 3.00823 7.85364C3.569 6.90139 2.62485 8.99377 2.66998 9.12374C2.60365 9.83448 2.7931 9.399 2.69685 10.4262C2.6717 10.7671 2.59958 11.4103 2.60323 12C2.60316 12.4467 2.60175 12.8619 2.60971 13.1043C2.62932 13.6827 2.72493 12.7828 2.74546 13.172C2.76598 13.5612 2.69334 14.0457 2.71714 14.5026C2.72763 14.6981 2.83426 14.6881 2.83799 14.7828C2.87902 15.7978 2.65722 15.132 2.67075 16.0524C2.67974 16.6487 2.8865 18.6502 2.94809 17.2707C2.96955 17.9338 2.98526 18.5804 3.00205 19.2401C3.03377 18.824 3.05532 18.394 3.09263 17.9881C3.04184 19.2296 3.22431 19.7912 3.23789 20.5693C3.25142 21.3477 3.03245 22.0454 3.13926 22.9016C3.36649 24.7291 3.2615 20.2039 3.3021 19.6421C3.31806 19.4232 3.48958 20.2639 3.49448 20.3934C3.51594 20.9685 3.39328 21.6488 3.39878 22.0921C3.41931 23.6793 3.58119 24.6511 3.61387 26.1637C3.72492 31.3145 3.81498 37.704 3.85044 42.5841C3.86351 44.4014 3.68149 45.4949 3.68662 46.3105C3.69877 48.2187 3.85739 48.4524 3.86582 50.1168C3.87501 51.8593 3.80922 54.1028 3.759 56C3.73716 56.6631 3.80024 57.2745 3.90006 57.7723C4.12721 58.9497 4.78933 59.835 4.94342 60.0864C6.28293 62.4422 9.2141 64.1722 12 64.1022C13.9308 64.0999 15.747 64.0999 17.2999 64.0993C19.3165 64.0983 20.2743 64.2708 20.6907 64.2658C22.4807 64.2443 22.0008 64.0968 23.452 64.1117C24.236 64.1196 24.3826 64.2612 24.4875 64.2667C25.4113 64.3134 25.5953 64.1285 26.3162 64.1225C30.4615 64.0875 34.4546 64.2085 38.5594 64.2262C38.8572 64.2276 38.8307 64.3095 39.0236 64.3053C39.852 64.2852 39.4669 64.1562 40.3326 64.1469C42.1329 64.1268 43.9817 64.1481 45.8904 64.1645C46.0795 64.1661 46.1644 64.2713 46.597 64.2714C47.0301 64.2714 47.3585 64.1716 48.0385 64.1771C49.8152 64.1916 51.5686 64.311 53.4502 64.3175C53.7615 64.3185 54.1473 64.1916 54.6143 64.193C56.0796 64.1972 58.2492 64.3124 59.5048 64.3166C63.647 64.3296 67.4684 64.2574 71.3703 64.2565C72.2872 64.2565 73.0996 64.3741 73.5766 64.3769C74.6521 64.3829 73.8407 64.2719 74.9302 64.2714C83.8306 64.2686 92.7652 64.3191 101.771 64.3102C105.307 64.3069 109.612 64.192 113.03 64.2238C113.432 64.2276 113.741 64.2427 114 64.2623C114.544 64.306 114.836 64.3656 115.434 64.2705C116.904 63.9553 117.114 63.6723 118.428 62.8766C119.453 62.2106 120.617 61.2904 121.256 60.1293C121.861 58.9645 121.901 58.3215 122.074 56.8759C122.099 56.6065 122.118 56.3122 122.122 56C122.136 54.6837 122.186 53.1545 122.175 51.9C122.059 38.5488 121.984 25.3815 122.079 12C122.09 10.8022 121.838 9.60966 121.335 8.5191C120.149 5.83868 117.164 3.79919 114 3.79327C112.226 3.76761 110.461 3.72975 108.736 3.67026C108.226 3.65251 109.007 3.46822 107.369 3.50693C106.489 3.52793 105.261 3.68673 103.227 3.69468C91.1355 3.74134 78.2377 3.40166 65.9428 3.46885C47.5261 3.57011 28.4394 4.88156 12.4355 2.9625C11.6505 2.86826 12.0762 2.40644 12.5465 2.27524C12.983 2.36901 13.3865 2.48038 13.8432 2.58628C14.4184 2.00924 14.317 2.15949 16.4489 2.21127C17.7614 2.24344 16.713 1.99665 17.4127 1.92661C18.3196 1.83608 22.578 1.55105 21.759 1.9332C22.023 1.86694 22.2666 1.80347 22.5238 1.73862C25.6067 1.68076 28.602 1.58508 31.6172 1.47543C32.1381 1.45626 32.1621 1.33636 32.7001 1.31723C34.145 1.26499 35.2922 1.34376 36.7811 1.33163C37.59 1.3251 37.7022 1.18654 38.7614 1.1954C39.8201 1.20432 39.7968 1.39138 41.2412 1.18808C40.3004 0.953381 44.4971 1.12368 45.9896 1.10922C46.2062 1.10735 47.9826 0.896507 48.9269 0.920743C49.8743 0.944536 51.3127 1.07923 52.7778 1.00277C53.4648 0.966847 53.8817 0.802641 54.6228 0.793301C55.1439 0.786769 55.7699 0.932725 56.4298 0.938809C57.0894 0.944872 58.5167 0.82506 58.7783 0.823086C59.7223 0.815155 58.6809 0.917771 59.3265 0.92294C62.4432 0.946269 66.0645 1.00126 69.1373 0.932217C69.5151 0.923846 68.9923 0.802945 69.0425 0.798916C71.6071 0.650575 70.2383 0.808099 70.9308 0.916348C71.6016 1.02102 76.5106 0.963923 76.5468 0.75375C76.6976 1.01694 77.7889 0.815919 78.0723 0.808193C79.1753 0.77836 78.959 1.00607 80.0282 0.935635C80.4206 0.909984 79.6566 0.756074 80.0783 0.760586C81.1206 0.771784 82.0586 1.01904 83.446 1.04379C83.7811 1.04986 83.89 0.939715 84.4856 0.943448C85.0819 0.947237 87.5815 1.08198 86.428 0.849697C87.944 1.03584 88.2492 0.933677 90.0123 0.938809C90.4589 0.940373 91.0339 1.11787 91.9845 1.06283C92.3059 1.04416 92.2965 0.87307 92.7804 0.87167C93.8869 0.867986 94.9293 1.04509 96.3335 1.05209C98.9596 1.06562 101.755 0.941114 104.493 0.98544C105.237 0.997605 105.051 1.16962 106.134 1.17294C106.293 1.17294 107.596 1.02419 108.344 1.03817C108.794 1.04657 111.126 1.15111 111.597 1.15951C112.374 1.17298 112.513 1.00661 112.939 1.03915C113.903 1.11252 113.508 1.27836 114 1.1867C114.149 1.16166 114.37 1.11681 114.728 1.06665C115.247 1.27555 116.171 1.41525 116.404 1.7136C116.986 1.59567 117.602 2.00846 118.571 2.37234C119.537 2.73326 120.543 2.87461 120.434 3.44678C120.895 3.64351 122.458 5.07233 122.645 5.38963C123.281 6.22892 122.84 5.84983 123.276 6.5052C123.343 6.62585 123.379 6.43671 123.778 7.24173C124.13 7.66297 125.016 11.0226 124.85 12C124.849 12.114 124.847 12.1898 124.846 12.2169C124.755 13.7953 124.737 13.028 124.716 12C124.711 11.214 124.559 10.2979 124.463 10.0524C124.47 9.93943 124.477 9.82739 124.479 9.70555C124.21 8.44828 124.189 9.22178 124.262 9.78201C124.344 10.3425 124.55 11.3933 124.47 11.8681C124.43 12.1042 124.182 11.9547 124.173 11.2674C124.133 12.0082 123.988 11.0111 123.928 11.3064C123.912 11.3875 123.913 11.649 123.901 12C123.865 13.0518 123.878 14.8841 123.988 14.897C123.994 14.2879 123.988 13.5299 123.995 12.914C124.251 12.1086 125.126 14.5551 124.776 16.7988C124.523 18.4263 124.322 15.7433 124.534 19.594C124.545 19.0018 124.569 18.5009 124.579 17.9629C124.771 17.9056 124.56 18.7785 124.621 19.2285C124.651 19.4447 124.787 18.1123 124.832 19.2691C124.558 20.264 124.834 21.0295 124.837 22.6977C124.788 22.2341 124.74 21.7699 124.691 21.3063C124.491 24.1252 124.426 17.5776 124.314 23.0592C124.305 22.3995 124.308 21.7432 124.294 21.0802C124.193 21.4016 123.897 20.8873 123.835 21.175C123.671 21.9295 123.77 23.0458 123.755 23.9661C123.749 24.3688 123.669 24.119 123.669 24.1528C123.66 24.7044 123.777 24.5826 123.785 25.0665C123.794 25.6755 123.68 27.4344 123.693 27.7195C123.726 28.4573 123.957 27.2289 123.975 27.2999C124.086 27.7703 123.994 28.7311 124.14 28.6806C124.039 26.3689 124.169 19.7068 124.411 25.7338C124.647 24.0722 124.974 24.5521 124.999 26.9412C125.021 28.9176 124.89 27.6423 124.746 28.6711C124.728 28.8041 124.66 31.4512 124.761 31.5867C124.527 31.4807 124.32 32.3421 124.079 31.7641C124.043 31.6795 124.057 30.5932 123.863 30.9722C123.765 31.1617 123.553 31.7055 123.429 31.6179C123.515 31.8412 123.613 32.0747 123.703 32.3014C123.728 33.9293 123.635 34.1605 123.474 35.0506C123.541 35.01 123.823 34.1876 123.737 35.4364C123.732 35.5004 123.631 35.5558 123.581 36.1903C123.48 37.4727 123.449 37.7404 123.151 36.7561C123.321 39.412 122.989 39.9842 123.086 42.7078C123.469 42.1663 123.374 41.2088 123.3 38.7147C123.391 38.6064 123.481 38.5557 123.573 38.444C123.367 41.7636 123.388 40.1232 123.573 42.004C123.618 42.4642 123.569 44.9183 123.827 44.0993C123.888 43.906 123.881 42.3814 123.976 42.5562C123.994 42.59 124.041 44.4435 124.016 44.6069C123.711 46.6577 123.499 42.9929 123.61 48.6406C123.613 48.7962 123.725 48.8508 123.74 49.155C123.769 49.7268 123.64 49.7339 123.67 50.2446C123.7 50.7555 123.873 51.4635 123.713 52.2317C123.421 53.6361 123.253 50.3232 123.408 48.8477C123.16 48.4594 123.07 52.7535 123.045 56C123.041 57.6064 122.577 58.8604 122.521 59.0561C122.105 60.2802 122.282 59.8968 122.584 59.1677C122.886 58.4381 123.083 57.3066 123.139 57.2009C123.183 57.119 123.796 57.2165 123.46 56.0503C123.451 56.0222 123.442 56.0062 123.433 56C123.426 55.9956 123.42 55.9958 123.413 56C123.321 56.0673 123.164 56.9739 123.143 56.2723C123.138 56.1621 123.135 56.0726 123.134 56C123.129 55.4974 123.256 55.7524 123.266 55.6968C123.306 55.4763 123.244 54.5333 123.267 54.4109C123.627 52.5293 124.171 52.7018 123.368 55.196C123.549 56.2823 123.839 53.7889 123.962 55.1392C123.989 55.4424 124.003 55.7305 124.007 56C124.022 57.2013 123.649 57.9786 123.609 58.1339C123.251 59.2962 123.283 59.2073 123.363 59.2076C123.412 59.1937 123.543 59.2962 122.824 60.6239C121.958 62.0349 123.823 58.3783 121.95 61.6163C121.027 62.8803 120.708 63.0895 120.777 63.1545C120.83 63.2077 121.173 63.0203 121.196 63.2081C121.206 63.2922 119.968 64.6312 121.696 62.8607C121.684 62.7567 121.693 62.5911 121.736 62.4275C122.162 62.0263 123.039 61.3856 123.206 61.0912C123.999 59.6841 123.722 59.6666 124.237 58.8321C123.797 59.4107 124.264 58.3994 124.273 57.979C124.285 56.6147 124.098 58.0278 124.367 56C124.388 55.7518 124.413 55.4508 124.443 55.085C124.351 55.4033 124.261 55.6989 124.171 56C124.14 56.1046 124.108 56.2087 124.074 56.3131C124.076 56.2091 124.076 56.1047 124.075 56C124.072 55.7108 124.069 55.4215 124.066 55.1324C124.335 54.5469 124.301 52.4619 124.572 54.35C124.649 52.0795 124.59 51.1617 124.381 50.6642C124.341 50.5697 124.325 50.2285 124.321 49.8277C124.262 49.9035 124.08 50.0005 124.058 49.9373C123.861 49.3723 124.2 48.4962 124.33 48.7949C124.336 48.5145 124.343 48.2925 124.346 48.2142C124.366 47.7175 124.483 48.6913 124.524 48.2887C124.537 48.156 124.511 46.7564 124.559 46.7293C124.864 46.5606 124.644 48.8638 124.821 44.2387C124.543 44.127 124.604 46.2752 124.309 45.7236C123.993 45.1314 124.418 43.9234 124.029 43.6594C124.093 43.5613 124.146 43.5179 124.219 43.4333C124.05 41.5622 124.373 41.5374 124.445 40.9658C124.584 39.8557 124.563 34.7524 124.283 39.3347C124.255 38.6646 124.242 37.9805 124.217 37.3138C124.798 37.1616 124.567 37.5676 124.655 34.3562C124.675 33.649 124.93 33.4187 124.627 32.7251C124.924 32.8193 124.745 30.7275 124.781 30.5323C125.015 29.2802 125.342 33.9293 124.816 34.5254C125.021 35.3102 124.75 35.3074 124.786 36.1835C124.838 37.4492 124.891 37.625 124.691 39.1276C124.972 40.6065 124.815 33.338 125.188 37.7442C125.381 40.0259 125.53 48.0041 125.637 56C125.934 63.5287 118.184 68.2523 114 67.8065C113.16 67.8141 112.451 67.8205 111.906 67.8256C101.06 67.9269 95.3571 67.993 85.6141 67.9762C84.6531 67.9748 77.3979 68.0018 78.9057 67.6767C79.1223 67.63 82.243 67.5064 79.5663 67.2511C80.1108 67.4018 78.5369 67.4997 78.4049 67.5155C75.3762 67.8757 77.1294 67.964 72.3611 67.9677ZM58.2256 65.0678C64.4489 65.142 59.8769 64.9246 61.1697 64.4337C60.371 64.4323 59.5752 64.431 58.7765 64.4296C58.9863 64.4604 59.1934 64.4911 59.4032 64.5219C59.4042 64.5219 59.405 64.5219 59.4059 64.5219C59.0134 64.7038 58.6181 64.8858 58.2256 65.0678ZM3.26084 16.2C3.32547 16.4428 3.39023 16.6827 3.45347 16.9458C3.43341 17.768 3.41371 18.5871 3.39365 19.4093C3.3498 19.3112 3.30542 19.2164 3.26157 19.1183C3.26343 18.1456 3.26547 17.176 3.26084 16.2ZM123.337 47.9773C123.516 46.8132 123.196 46.9182 123.342 45.3717C123.105 45.5612 122.874 45.7717 122.64 45.9713C122.675 47.1485 122.765 47.416 122.707 48.6947C122.783 48.5459 122.859 48.3935 122.936 48.2481C122.919 48.0351 122.901 47.8086 122.886 47.6024C123.099 47.2743 123.131 49.3176 123.337 47.9814C123.337 47.98 123.337 47.9787 123.337 47.9773ZM123.241 36.0482C123.272 35.4221 123.388 32.9417 123.29 32.6033C122.958 31.456 123.169 38.4539 122.873 33.2963C122.827 33.3199 122.781 33.2964 122.735 33.2963C122.718 34.2371 122.704 35.1751 122.691 36.1226C122.875 36.0719 123.057 36.1057 123.241 36.0482ZM80.7344 65.0473C81.6967 65.0729 86.2837 64.9166 84.7884 64.7062C84.3485 64.6446 82.3006 64.9456 81.5222 64.9325C81.0182 64.9241 81.5831 64.7591 80.5882 64.8197C80.6322 64.8925 80.6594 64.9731 80.7371 65.0468C80.7362 65.0469 80.7353 65.0471 80.7344 65.0473ZM78.9301 66.0075C79.925 65.9781 80.9334 65.9408 81.935 65.9096C81.204 65.7216 79.7659 65.8423 79.6813 65.5778C79.9553 65.5577 80.2262 65.5378 80.5002 65.5177C80.71 65.5756 80.9165 65.6335 81.1229 65.6913C81.9825 65.5476 81.4618 65.4762 83.0626 65.5177C82.0947 65.1178 81.915 64.9032 79.1737 65.3078C79.6915 65.0908 79.2042 64.3839 77.6848 64.8891C77.4005 64.9829 78.5876 65.0455 78.6012 65.0605C78.7837 65.2461 78.1251 65.3646 78.321 65.5399C78.409 65.6193 79.1331 65.6181 79.2414 65.7282C79.2914 65.7819 78.6027 65.9352 78.9301 66.0075ZM76.9471 65.0661C77.255 64.9536 76.2027 64.6868 75.2889 64.7409C73.8642 64.8249 76.1112 65.0787 76.9471 65.0661ZM3.2606 16.1946C3.26068 16.1964 3.26076 16.1982 3.26084 16.2C3.2606 16.1991 3.26035 16.1982 3.26011 16.1973C3.26027 16.1964 3.26043 16.1955 3.2606 16.1946ZM123.111 39.2765C123.016 38.5389 123.03 37.447 122.878 37.5276C122.907 37.1689 122.937 36.8062 122.967 36.4475C122.921 36.4509 122.875 36.4576 122.83 36.461C122.802 37.5404 122.773 38.6167 122.744 39.6961C122.866 39.5607 122.989 39.4355 123.111 39.2765ZM123.218 27.5165C123.233 26.1597 123.026 27.2972 122.926 26.9994C122.827 26.7016 122.908 25.4929 122.765 25.635C122.759 26.4337 122.753 27.2667 122.748 28.0755C122.904 27.8623 123.063 27.7135 123.218 27.5138C123.218 27.5147 123.218 27.5156 123.218 27.5165ZM32.8269 64.9049C33.7473 64.9497 33.3717 65.1075 35.1889 64.9228C35.1876 64.9228 35.1862 64.9228 35.1849 64.9228C33.4557 64.7935 31.2296 64.6784 29.3211 64.8034C30.4884 64.9698 31.3787 64.835 32.8269 64.9049ZM122.871 51.1962C122.996 51.5848 123.1 49.7749 122.984 49.3756C122.796 48.7294 122.681 50.6039 122.871 51.1962ZM1.98764 55.3592C1.78106 54.6078 1.56091 55.0238 1.43009 56C1.3092 56.8863 1.41234 58.2731 1.96051 59.5404C2.02925 59.7801 1.63739 57.9233 1.86001 58.4474C1.86866 58.5019 2.14982 59.4933 2.30406 59.7053C2.44633 59.9202 2.46279 59.6325 2.6667 59.987C2.99498 60.6138 3.71328 62.0677 4.17173 62.3897C4.21817 62.4367 3.76006 61.5515 3.74375 61.4933C3.27012 60.6171 2.71378 59.813 2.65538 59.6626C2.36647 58.9097 2.58734 58.9673 2.56385 58.7664C2.5244 58.3869 2.32229 57.7593 2.32316 57.71C2.26158 56.5163 2.70802 59.192 2.99015 59.4821C3.54865 60.2926 3.19346 59.5129 4.471 61.3619C4.59825 61.5465 6.1513 63.51 4.37817 60.8863C5.32131 62.1172 5.85331 62.3913 5.85175 62.366C5.86863 62.3247 5.43329 61.9124 4.94382 61.2604C3.87135 59.9965 3.17812 57.5307 3.14565 57.0331C3.05628 56.5789 2.96962 57.294 2.86596 57.0214C2.75629 56.7339 2.68472 56.3389 2.63416 56C2.57252 55.571 2.50522 55.2394 2.3768 55.2983C2.19675 55.3831 2.12481 55.6464 2.10225 56C2.05653 56.6193 2.25713 57.4958 2.36244 58.1753C2.23277 58.0874 2.11948 58.0666 1.97555 57.8733C2.1107 58.0835 1.94388 56.8149 1.98794 56C1.99651 55.6536 1.99699 55.3896 1.98862 55.3592C1.98829 55.3592 1.98797 55.3592 1.98764 55.3592ZM12.9278 65.4452C14.4609 65.595 14.3524 65.2817 15.7568 65.4608C16.9954 65.1795 14.5524 65.1984 14.2679 65.1825C13.0867 65.1181 13.004 64.8594 12 64.8836C11.91 64.886 11.812 64.8899 11.7042 64.895C11.805 64.9438 11.903 64.991 12 65.0367C12.3168 65.1728 12.6062 65.3094 12.9278 65.4452ZM3.18478 59.0219C3.65045 59.86 3.08744 58.2685 3.13384 58.1879C3.20588 57.7965 3.49811 58.8048 3.76105 59.4646C4.03426 60.1106 4.03881 60.5823 3.18478 59.0219ZM86.7064 65.6776C87.2274 65.6884 86.8968 65.5365 87.3562 65.4916C87.8162 65.4464 89.3894 65.5764 89.35 65.4818C89.3094 65.3871 86.4267 65.1415 89.3202 65.0883C89.2222 65.0351 89.2552 64.9955 89.2079 64.9474C88.4126 64.946 87.61 64.9437 86.8147 64.9423C87.2512 65.0953 87.6986 65.2563 88.1182 65.4042C87.6715 65.526 87.4205 65.3698 87.3968 65.3698C87.3968 65.3699 87.3968 65.3701 87.3968 65.3703C86.5645 65.3825 85.5367 65.6538 86.7064 65.6776ZM45.6941 65.2008C45.5384 65.5811 46.7668 65.1564 47.271 65.1093C47.7752 65.0623 48.468 65.2031 48.2077 65.0395C47.3921 64.9265 45.711 65.1584 45.6941 65.2013C45.6941 65.2012 45.6941 65.201 45.6941 65.2008ZM21.2565 65.4445C22.5415 65.3522 22.3375 65.2533 23.9095 65.3661C23.8486 65.2742 23.7877 65.1803 23.7268 65.0897C22.4781 65.0879 22.5658 65.3547 21.1211 65.2475C20.8842 65.2297 21.3914 65.0166 20.3225 65.0851C20.6336 65.1989 20.9488 65.3251 21.2565 65.4445ZM27.6251 65.1037C26.1496 65.1177 24.9794 65.8615 27.6968 65.526C28.0996 65.4759 28.7347 65.0929 27.6251 65.1037ZM73.0961 65.6964C75.6061 65.7179 72.7547 65.5978 72.1012 65.4835C77.9443 65.3921 71.4416 65.5148 70.8586 65.1347C70.1446 65.2429 68.8084 65.4905 70.2928 65.5568C70.9122 65.5843 70.6861 65.4711 70.7233 65.4716C71.8637 65.4996 71.7256 65.6848 73.0961 65.6964ZM10.3639 65.3227C10.4529 65.3318 10.338 65.1843 10.6191 65.2022C10.8968 65.2244 11.5266 65.3612 11.5937 65.2807C11.6541 65.2198 10.4108 65.046 10.0268 64.9947C9.63969 64.9603 9.55453 65.2167 10.3639 65.3227ZM19.8961 65.7799C21.1501 65.6875 19.0995 65.2145 18.8268 65.2167C16.4307 65.2414 19.9672 65.6302 19.8961 65.7799ZM67.2676 66.4999C70.2931 66.2596 68.0799 65.842 66.1847 65.5919C65.9344 65.6428 65.6777 65.6937 65.4308 65.744C66.5679 65.4352 68.5606 65.1298 64.1273 65.3991C66.5538 65.4718 64.5219 65.5548 64.5063 65.5722C64.2389 66.1396 67.8334 65.8761 67.2649 66.4999C67.2658 66.4999 67.2667 66.4999 67.2676 66.4999ZM6.87684 63.7968C5.74757 63.2423 3.70813 60.6917 4.4464 62.0468C5.17157 62.7666 5.99589 63.3553 6.87684 63.7968ZM116.893 66.0617C118.013 65.8787 119.01 65.4443 120.152 64.6283C118.99 65.1582 119.678 64.6833 119.984 64.4046C120.453 63.9823 119.21 64.8544 119.187 64.8231C119.102 64.6172 119.945 64.2038 118.025 65.1697C118.485 64.8934 118.911 64.5852 119.312 64.246C117.934 65.0732 117.487 65.0429 116.504 65.1826C117.535 65.2581 116.27 65.4765 115.118 65.7843C114.523 65.9525 116.306 66.1989 116.897 66.0605C116.895 66.0609 116.894 66.0613 116.893 66.0617ZM70.3944 66.5763C70.7057 66.5077 70.9906 66.415 71.2918 66.3366C71.6201 66.3291 71.9489 66.3226 72.2772 66.3151C72.3178 66.3757 72.3517 66.4392 72.399 66.4975C72.8316 66.5151 72.663 66.4307 72.7916 66.4228C72.7916 66.4231 72.7916 66.4234 72.7916 66.4237C74.6353 66.3118 75.3902 66.3244 76.8347 66.5119C76.8347 66.3261 76.8347 66.1403 76.8347 65.9545C76.5101 65.9722 76.1821 65.9895 75.8574 66.0067C75.6849 66.1066 75.5116 66.2065 75.339 66.3063C74.9634 66.2512 74.5912 66.1966 74.2155 66.1415C73.9146 66.1774 73.5529 66.2152 73.2924 66.2502C71.7933 65.7309 75.2003 66.0836 75.2307 65.8681C75.251 65.7295 71.8198 65.7356 71.3256 65.8312C71.2546 65.8452 71.996 66.2319 70.7409 66.0304C70.5446 65.9987 70.4756 65.1621 69.122 65.8395C68.9291 65.9356 69.6027 66.4553 70.3944 66.5763ZM82.8528 66.8461C80.9238 66.3109 88.0433 66.8768 84.9711 66.4364C85.8475 66.1906 85.6849 66.1938 84.8019 65.9755C84.7242 65.9559 85.3343 65.8884 85.2825 65.8798C84.4567 65.7594 83.4619 65.8232 83.4551 65.6044C83.2319 65.6161 83.0219 65.6264 82.7986 65.6381C83.7286 65.8443 82.2497 65.9829 81.6779 66.1569C81.4174 66.2357 82.0161 66.26 81.797 66.329C81.7158 66.3542 80.8798 66.3039 80.8454 66.3761C80.7744 66.5394 81.2995 66.7601 82.1895 66.8805C82.1895 66.8807 82.1895 66.8809 82.1895 66.881C82.4127 66.8703 82.6296 66.8573 82.8528 66.8461ZM41.6252 66.4015C41.297 66.1057 39.9811 66.021 42.5091 65.8764C42.384 65.8181 42.2552 65.7603 42.1301 65.7021C41.7038 65.7072 41.2908 65.7123 40.8577 65.7169C39.5582 66.5885 37.1863 65.6049 38.7055 66.2231C38.8714 66.2902 39.8826 66.2152 38.8842 66.3976C38.8856 66.3978 38.8869 66.3979 38.8883 66.3981C40.2822 66.3421 40.4578 66.2373 41.6252 66.4015ZM50.9555 66.1952C54.1705 65.5728 46.5129 65.8479 47.7922 66.0131C47.9072 66.028 51.2059 65.8943 50.9555 66.1952ZM25.1575 66.737C26.5988 66.7477 26.6943 66.4119 26.549 66.2909C26.4035 66.1696 25.4054 66.2922 25.2766 66.2731C24.8569 66.2101 25.747 66.1685 25.2022 66.0822C25.0217 66.0542 22.5112 65.9344 22.3962 65.9489C21.7575 66.0292 22.6912 66.3063 22.5085 66.338C21.913 66.442 21.1043 66.2979 20.9316 66.4452C20.5595 66.7596 22.0671 66.4296 22.3217 66.4242C23.09 66.4093 23.0228 66.5863 23.5982 66.6217C24.1731 66.6571 24.5487 66.5965 25.056 66.609C25.2247 66.6132 25.0844 66.7359 25.1575 66.737ZM29.9235 66.0277C28.418 66.282 32.0835 66.5585 32.5183 66.4989C33.7976 66.3221 30.6443 65.9064 29.9235 66.0277ZM78.0232 66.0385C76.6463 66.2228 79.8539 66.3719 80.771 66.2978C80.6009 66.2212 78.4969 65.975 78.0232 66.0385ZM66.4284 66.4989C67.6941 66.4415 66.0156 66.0263 64.9597 66.0329C64.3407 66.3057 64.9232 66.2517 65.6135 66.2628C66.303 66.2742 65.4409 66.5436 66.4284 66.4989ZM9.44212 66.1176C9.59649 66.1847 11.1956 66.399 12 66.2804C12.5013 66.2282 12.6901 66.1731 12 66.1337C11.9046 66.1283 11.793 66.122 11.6645 66.1131C11.5691 66.108 10.7367 66.0864 9.91668 65.9232C9.09337 65.7729 8.2992 65.4811 8.18197 65.4541C7.70225 65.3467 8.72032 65.9416 9.44212 66.1176ZM60.3575 66.902C61.0275 66.666 61.6867 66.6691 61.0709 66.392C61.07 66.392 61.0691 66.392 61.0682 66.392C62.7635 66.3071 62.8386 66.8741 63.2041 66.862C64.4825 66.8194 63.2713 66.4159 64.0731 66.2834C62.2085 66.4079 62.7433 66.1358 61.3253 66.1186C61.0072 66.1148 59.7342 66.2773 59.5481 66.3786C59.3623 66.4799 60.0124 66.7835 60.3575 66.902ZM3.985 62.7715C4.9601 64.0281 6.31349 64.5686 4.79158 63.1309C4.10975 62.3888 3.43892 61.9909 3.985 62.7715ZM124.588 33.9054C124.488 34.1321 124.388 34.3657 124.288 34.6093C124.264 34.0613 124.239 33.5127 124.215 32.9647C124.246 33.3979 124.278 33.8316 124.309 34.2682C124.344 33.2394 124.526 32.769 124.588 33.9027C124.588 33.9036 124.588 33.9045 124.588 33.9054ZM115.051 1.3867C114.766 1.29895 114.296 1.35876 114 1.44216C113.809 1.49739 113.689 1.55193 113.735 1.56137C113.823 1.57889 113.911 1.59194 114 1.60111C114.814 1.67895 115.642 1.57988 115.051 1.3867ZM80.0576 66.9469C81.7687 66.9888 80.5921 66.5025 79.5433 66.4691C80.1849 66.5621 79.0867 66.9231 80.0576 66.9469ZM124.463 10.0524C124.451 10.2205 124.437 10.3901 124.419 10.5742C124.396 10.0025 124.402 9.89623 124.463 10.0524ZM10.0803 66.6937C10.2624 66.7596 11.2675 66.9229 12 66.908C12.3269 66.9069 12.5919 66.9 12.6774 66.8849C13.0054 66.8261 12.582 66.7044 12 66.636C11.5955 66.5926 11.1299 66.5417 10.7579 66.5299C10.6568 66.5355 9.81204 66.6102 10.0846 66.6945C10.0832 66.6942 10.0817 66.694 10.0803 66.6937ZM124.774 31.5908C124.77 31.5938 124.765 31.5922 124.761 31.5867C124.765 31.5887 124.77 31.5882 124.774 31.5908ZM76.5319 0.731533C76.5424 0.739077 76.5481 0.746564 76.5468 0.75375C76.5428 0.746693 76.5346 0.73927 76.5319 0.731533ZM23.8486 67.2758C24.4916 67.7391 25.9738 67.4927 24.8029 67.2636C24.7373 67.2515 24.0045 67.2767 23.8486 67.2758Z" fill="#9C6B4B"/>
</svg>
