<svg viewBox="0 0 146 77" preserveAspectRatio="none" xmlns="http://www.w3.org/2000/svg">
  <!-- ↑ width/height у <svg> НЕ задаём -->

  <!-- NEW: «подтяни к краям». Эти числа подобраны под ваш размер 146×77 -->
  <!-- pX=3px, pY=3px ⇒ scaleX≈1.0411, scaleY≈1.0779, сдвиг -3,-3 -->
  <g transform="translate(-5.2,-1.2) scale(1.0791958904,1.1679220779)">
    <g filter="url(#filter0_d_52_37)">
<path d="M84.7795 68.4596C69.5012 68.4724 52.7744 68.5496 37.4351 68.4492C35.552 68.437 35.6806 68.2691 35.1523 68.2469C33.708 68.1857 32.8384 68.3838 31.7857 68.3693C26.668 68.2993 21.8806 68.2708 16.86 68.2072C16.5461 68.2033 16.2604 68.1976 16 68.1905C13.5413 68.0689 13.0234 67.5783 12.8295 67.4154C12.6434 67.2045 12.7745 67.1215 11.883 66.733C10.0744 65.8408 9.96868 65.7279 10.0028 65.9713C10.0533 66.1847 10.3702 66.6173 9.61638 66.2538C6.15763 64.0962 3.97157 60.0411 4.07564 56C4.08764 55.3405 4.0998 54.6815 4.11199 54.0233C4.15445 54.681 4.19631 55.3389 4.23698 56C4.25719 56.3866 4.29575 56.7704 4.35273 57.1521C4.31898 56.784 4.30436 56.3856 4.31295 56C4.35084 54.5007 4.44773 53.2449 4.59356 55.6577C4.64255 55.0072 4.69984 54.3999 4.74767 53.7315C4.49981 53.5482 4.47987 50.4365 4.33293 50.152C4.18595 49.8681 4.21973 51.6176 4.2069 51.6068C4.02383 51.4908 4.27407 44.3143 4.29448 43.7968C4.34879 42.4286 4.65607 43.6282 4.63628 42.4642C4.60245 40.4624 3.97726 41.796 4.8084 39.0861C4.5384 38.0081 4.67861 37.914 4.69732 36.5489C4.69965 36.3692 4.54332 36.5086 4.53923 36.4296C4.4232 34.3633 4.71392 35.9516 4.72966 35.9408C4.99719 35.7532 4.87826 33.5358 4.90392 33.0687C5.22352 27.2071 5.4399 22.9122 5.51397 16.7271C5.52455 15.8287 5.47902 13.6955 5.4618 12C5.45153 11.1266 5.56672 10.3669 5.6697 9.93202C6.01733 8.63381 6.03906 9.38394 6.3237 8.75523C6.25942 7.60437 6.6069 6.36411 8.54663 4.72902C8.99215 3.84726 9.04194 4.04633 10.5014 2.99976C11.6836 2.11208 14.2775 0.91698 16 1.33849C14.0893 1.40476 14.2584 1.51016 12.2858 2.25459C11.9635 2.37316 10.0799 3.20069 8.80635 4.55767C7.4913 5.87137 6.85697 7.46218 7.12958 7.29185C7.35438 7.09973 8.5984 5.14315 8.73971 5.13415C9.24072 4.90338 8.49522 5.94399 7.85027 6.84052C7.9653 6.58529 8.12533 6.28658 8.27986 6.02435C6.65815 8.01521 8.38448 6.94419 6.81911 8.32358C6.63894 8.51226 6.57181 8.38456 6.33755 8.73513C6.35178 8.82672 6.61621 8.39624 6.49572 8.80377C6.36827 9.21144 5.98158 9.97616 6.13608 10.1321C6.32146 10.3481 6.6631 8.62299 6.76421 8.51258C6.76329 8.51071 6.76236 8.50884 6.76144 8.50697C7.30081 7.46807 6.46516 9.74617 6.53142 9.8802C6.54646 10.6375 6.72518 10.1695 6.73747 11.2518C6.74487 11.4359 6.74137 11.7 6.74758 12C6.76187 12.7581 6.74536 13.7128 6.76214 14.1467C6.78666 14.761 6.90616 13.8053 6.93182 14.2186C6.95748 14.6319 6.86667 15.1465 6.89642 15.6317C6.90953 15.8393 7.04282 15.8287 7.04748 15.9292C7.09877 17.0072 6.82152 16.3001 6.83844 17.2776C6.84968 17.9109 7.10813 20.0364 7.18512 18.5714C7.21194 19.2756 7.23157 19.9623 7.25256 20.663C7.29221 20.221 7.31915 19.7644 7.36578 19.3333C7.30229 20.6518 7.53039 21.2483 7.54736 22.0746C7.56428 22.9012 7.29056 23.6422 7.42407 24.5514C7.70812 26.4922 7.57688 21.6865 7.62762 21.0899C7.64757 20.8573 7.86198 21.7502 7.8681 21.8877C7.89492 22.4985 7.7416 23.221 7.74847 23.6918C7.77414 25.3773 7.97649 26.4094 8.01733 28.0158C8.15615 33.4859 8.26872 40.2717 8.31305 45.4543C8.32938 47.3843 8.10186 48.5456 8.10828 49.4117C8.12346 51.4382 8.32173 51.6865 8.33228 53.454C8.3371 54.2311 8.3254 55.1019 8.30555 56C8.22898 57.6644 8.81519 59.4211 9.50358 60.4294C10.1608 61.4502 11.1506 61.9877 11.3901 62.1569C12.6561 63.0847 14.3104 63.6583 16 63.6405C19.7271 63.6244 23.438 63.6256 26.3044 63.6241C28.4461 63.6229 29.4632 63.8385 29.9054 63.8322C31.8065 63.8054 31.2967 63.621 32.8379 63.6396C33.6705 63.6495 33.8262 63.8265 33.9376 63.8334C34.9188 63.8918 35.1141 63.6607 35.8797 63.6531C40.2821 63.6094 44.5227 63.7606 48.882 63.7828C49.1982 63.7845 49.1702 63.8869 49.375 63.8817C50.2547 63.8565 49.8458 63.6953 50.7651 63.6836C52.6771 63.6585 54.6405 63.6852 56.6675 63.7056C56.8683 63.7076 56.9586 63.8392 57.4179 63.8392C57.8779 63.8392 58.2267 63.7145 58.9489 63.7214C60.8357 63.7395 62.6978 63.8887 64.696 63.8969C65.0267 63.8981 65.4364 63.7395 65.9323 63.7413C67.4885 63.7465 69.7926 63.8904 71.126 63.8957C75.525 63.912 79.5834 63.8218 83.7272 63.8206C84.7009 63.8207 85.5637 63.9676 86.0704 63.9711C87.2125 63.9786 86.3508 63.8398 87.5079 63.8392C96.9601 63.8357 106.449 63.8988 116.012 63.8878C119.768 63.8837 124.34 63.7401 127.969 63.7797C128.397 63.7845 128.725 63.8033 129 63.8279C129.548 63.8836 129.846 63.9615 130.449 63.8595C131.932 63.5218 132.123 63.185 133.408 62.3411C134.408 61.637 135.573 60.6828 136.138 59.4666C136.666 58.2507 136.611 57.5899 136.65 56.1316C136.65 56.0884 136.649 56.0446 136.649 56C136.635 54.4368 136.735 52.3287 136.718 50.6719C136.586 37.7257 136.496 24.9423 136.572 12C136.6 9.87223 135.691 7.76341 134.098 6.30113C132.777 5.07148 130.932 4.30733 129 4.2965C125.57 4.26932 122.081 4.22369 118.734 4.08783C118.192 4.06564 119.022 3.83527 117.282 3.88367C116.348 3.90991 115.043 4.10841 112.884 4.11835C100.042 4.17667 86.3445 3.75207 73.2873 3.83606C53.7287 3.96264 33.4586 5.60195 16.4625 3.20312C15.6288 3.08532 16.0809 2.50805 16.5804 2.34405C17.0439 2.46126 17.4725 2.60047 17.9575 2.73285C18.5684 2.01155 18.4607 2.19936 20.7247 2.26409C22.1186 2.30429 21.0052 1.99581 21.7482 1.90826C22.7114 1.79511 27.2338 1.43881 26.3641 1.9165C26.6444 1.83368 26.9032 1.75434 27.1763 1.67327C30.4503 1.60095 33.6313 1.48135 36.8335 1.34429C37.3866 1.32033 37.4121 1.17044 37.9835 1.14654C39.518 1.08124 40.7363 1.1797 42.3176 1.16454C43.1766 1.15638 43.2957 0.98317 44.4207 0.994252C45.5449 1.0054 45.5203 1.23922 47.0542 0.985097C46.055 0.691726 50.5119 0.904597 52.097 0.886525C52.327 0.884192 54.2136 0.620634 55.2164 0.650928C56.2225 0.68067 57.7501 0.849037 59.3061 0.753468C60.0356 0.708558 60.4783 0.503302 61.2654 0.491626C61.8189 0.483461 62.4837 0.665907 63.1845 0.673511C63.885 0.68109 65.4008 0.531325 65.6786 0.528858C66.6811 0.518944 65.5751 0.647214 66.2608 0.653675C69.5707 0.682836 73.4165 0.751577 76.6798 0.665272C77.081 0.654808 76.5259 0.503682 76.5792 0.498645C79.3028 0.313218 77.8491 0.510123 78.5845 0.645435C79.2969 0.776276 84.5103 0.704904 84.5488 0.442187C84.7089 0.77117 85.8678 0.519898 86.1688 0.510242C87.3402 0.47295 87.1105 0.757582 88.246 0.669544C88.6628 0.637481 87.8514 0.445093 88.2992 0.450732C89.4061 0.46473 90.4023 0.773802 91.8757 0.804737C92.2316 0.81232 92.3472 0.674644 92.9798 0.67931C93.6131 0.684047 96.2676 0.852477 95.0426 0.562122C96.6525 0.794803 96.9767 0.667096 98.8491 0.673511C99.3234 0.675467 99.9341 0.897333 100.944 0.828541C101.285 0.805195 101.275 0.591337 101.789 0.589588C102.964 0.584982 104.071 0.806366 105.562 0.815113C108.351 0.832021 111.32 0.676392 114.228 0.7318C115.018 0.747006 114.821 0.96202 115.97 0.966176C116.139 0.966176 117.523 0.780236 118.317 0.797718C118.795 0.808217 121.272 0.938893 121.772 0.949391C122.598 0.96622 122.745 0.758268 123.198 0.798939C124.506 0.916172 123.456 1.22227 125.03 0.803517C125.548 1.03565 126.468 1.01243 126.763 1.29821C127.293 0.988163 127.979 1.27997 129 1.18405C129.011 1.18308 129.022 1.18209 129.034 1.18107C130.137 1.07278 131.212 0.677508 131.345 1.37576C131.89 1.34588 134.074 2.05644 134.396 2.29498C135.392 2.85379 134.778 2.68566 135.49 3.14987C135.609 3.24111 135.575 3.02303 136.31 3.66052C136.55 3.86686 137.527 4.78268 138.223 5.86372C138.942 6.92964 139.364 8.10445 139.4 8.23717C140.145 11.3161 138.815 6.60065 138.119 6.2099C138.085 6.09119 138.05 5.9737 138.007 5.84877C137.233 4.69674 137.497 5.50224 137.789 6.03513C138.089 6.5642 138.728 7.52242 138.822 8.03661C138.867 8.28984 138.519 8.25458 138.246 7.57371C138.482 8.3292 137.935 7.40599 137.978 7.72772C138.005 7.8993 138.364 8.76918 138.57 9.64251C138.792 10.5118 138.874 11.3705 138.966 11.3754C138.937 10.7296 138.798 9.93365 138.625 9.30338C138.639 8.54882 140.007 9.86389 140.068 12C140.082 12.4548 140.055 12.9287 139.97 13.3944C139.654 15.1228 139.403 12.2734 139.668 16.3628C139.681 15.734 139.711 15.202 139.724 14.6306C139.964 14.5698 139.7 15.4967 139.777 15.9747C139.814 16.2043 139.984 14.7893 140.041 16.0178C139.697 17.0743 140.043 17.8873 140.047 19.659C139.985 19.1667 139.924 18.6737 139.863 18.1813C139.614 21.175 139.532 14.2214 139.393 20.0428C139.382 19.3423 139.385 18.6453 139.368 17.9412C139.242 18.2825 138.872 17.7364 138.794 18.0418C138.588 18.8431 138.712 20.0287 138.694 21.006C138.687 21.4337 138.587 21.1684 138.586 21.2044C138.575 21.7901 138.721 21.6608 138.731 22.1747C138.742 22.8214 138.6 24.6893 138.616 24.9922C138.658 25.7757 138.947 24.4711 138.968 24.5466C139.108 25.0461 138.992 26.0664 139.175 26.0128C139.049 23.5578 139.211 16.4826 139.513 22.8834C139.809 21.1187 140.217 21.6283 140.249 24.1656C140.276 26.2646 140.112 24.9102 139.933 26.0028C139.91 26.144 139.824 28.9552 139.951 29.0992C139.659 28.9865 139.4 29.9014 139.098 29.2875C139.054 29.1976 139.071 28.044 138.829 28.4465C138.707 28.6478 138.442 29.2253 138.286 29.1322C138.394 29.3694 138.516 29.6174 138.628 29.8582C138.66 31.5869 138.543 31.8325 138.342 32.7778C138.426 32.7346 138.779 31.8612 138.672 33.1874C138.665 33.2555 138.539 33.3143 138.476 33.9881C138.35 35.3501 138.311 35.6344 137.939 34.589C138.151 37.4096 137.736 38.0173 137.858 40.9097C138.336 40.3347 138.217 39.3178 138.125 36.6691C138.239 36.5541 138.352 36.5002 138.466 36.3816C138.209 39.907 138.235 38.1649 138.466 40.1622C138.522 40.651 138.462 43.2573 138.784 42.3875C138.86 42.1822 138.851 40.5631 138.97 40.7487C138.993 40.7847 139.051 42.7531 139.02 42.9266C138.639 45.1045 138.374 41.2125 138.513 47.2104C138.517 47.3756 138.656 47.4336 138.675 47.7566C138.711 48.3639 138.55 48.3715 138.587 48.9138C138.625 49.4564 138.842 50.2083 138.641 51.0241C138.276 52.5156 138.066 48.9973 138.26 47.4303C137.92 46.9775 137.817 52.5179 137.8 56C137.795 57.2485 137.531 58.1664 137.5 58.3379C137.179 59.636 137.334 59.2308 137.593 58.4538C137.851 57.6747 137.953 56.4887 138.013 56.3726C138.051 56.3104 138.365 56.3238 138.456 56C138.505 55.8154 138.488 55.5311 138.325 55.0822C138.189 54.7048 138.009 56.2821 137.934 55.3409C137.859 54.3993 138.068 54.7724 138.082 54.7041C138.132 54.4699 138.055 53.4684 138.084 53.3385C138.534 51.3402 139.214 51.5234 138.21 54.1722C138.437 55.3259 138.798 52.6778 138.952 54.1118C139.03 54.8366 139.02 55.4799 138.98 56C138.922 56.7314 138.737 57.1942 138.714 57.3165C138.425 58.5698 138.46 58.4746 138.555 58.4717C138.617 58.4549 138.781 58.5605 138.107 60.0148C137.28 61.5584 138.958 57.5626 137.213 61.1006C136.319 62.4888 135.993 62.7271 136.08 62.8029C136.148 62.8665 136.517 62.664 136.572 62.8809C136.598 62.9776 135.354 64.4837 137.104 62.4981C137.075 62.3788 137.061 62.1903 137.086 62.0061C137.523 61.5651 138.479 60.8571 138.639 60.5276C139.398 58.962 139.061 58.9562 139.583 58.0267C139.117 58.6758 139.557 57.5574 139.518 57.105C139.432 55.9866 139.288 56.6185 139.36 56C139.387 55.7188 139.448 55.1706 139.553 54.0543C139.4 54.5072 139.25 54.9168 139.098 55.3553C139.093 54.9385 139.088 54.5214 139.082 54.1047C139.419 53.4829 139.376 51.2686 139.715 53.2738C139.811 50.8625 139.737 49.8878 139.476 49.3594C139.426 49.2591 139.406 48.8968 139.401 48.4711C139.327 48.5516 139.1 48.6546 139.072 48.5875C138.827 47.9874 139.25 47.057 139.412 47.3742C139.42 47.0765 139.429 46.8407 139.433 46.7575C139.458 46.23 139.604 47.2642 139.654 46.8366C139.671 46.6957 139.639 45.2093 139.698 45.1806C140.08 45.0014 139.805 47.4474 140.026 42.5356C139.679 42.417 139.755 44.6984 139.387 44.1125C138.991 43.4836 139.522 42.2007 139.036 41.9203C139.116 41.8161 139.183 41.77 139.274 41.6803C139.062 39.6931 139.467 39.6668 139.556 39.0597C139.73 37.8808 139.704 32.4611 139.354 37.3275C139.319 36.6158 139.302 35.8893 139.271 35.1813C139.997 35.0196 139.708 35.4508 139.819 32.0403C139.843 31.2892 140.163 31.0447 139.784 30.3081C140.155 30.4082 139.931 28.1867 139.976 27.9793C140.269 26.6496 140.678 31.5869 140.02 32.22C140.276 33.0535 139.938 33.0505 139.983 33.9809C140.048 35.3251 140.113 35.5118 139.864 37.1075C140.216 38.6781 140.019 30.9589 140.485 35.6384C140.736 38.1542 140.927 47.1913 141.061 56C141.352 63.8488 133.372 68.6953 129 68.2581C128.107 68.2677 127.355 68.2756 126.776 68.282C115.258 68.4086 109.201 68.4913 98.8542 68.4703C97.8335 68.4685 90.1285 68.5023 91.7299 68.0958C91.9599 68.0375 95.274 67.8829 92.4314 67.5639C93.0096 67.7523 91.3381 67.8746 91.198 67.8944C87.9815 68.3447 89.8434 68.4549 84.7795 68.4596ZM69.7676 64.8347C76.3767 64.9274 71.5213 64.6557 72.8942 64.0422C72.046 64.0404 71.2008 64.0387 70.3526 64.037C70.5754 64.0755 70.7954 64.1139 71.0182 64.1523C71.0191 64.1523 71.0201 64.1523 71.0211 64.1523C70.6042 64.3798 70.1844 64.6073 69.7676 64.8347ZM7.57605 17.4343C7.65684 17.6922 7.73779 17.947 7.81683 18.2264C7.79176 19.0996 7.76714 19.9695 7.74207 20.8427C7.68725 20.7385 7.63178 20.6378 7.57696 20.5336C7.57929 19.5006 7.58184 18.4709 7.57605 17.4343ZM138.171 46.506C138.395 45.2697 137.995 45.3812 138.177 43.7388C137.881 43.94 137.592 44.1635 137.299 44.3756C137.343 45.6257 137.456 45.9099 137.383 47.2679C137.478 47.1098 137.574 46.948 137.67 46.7935C137.649 46.5673 137.626 46.3268 137.608 46.1078C137.874 45.7593 137.914 47.9294 138.171 46.5103C138.171 46.5089 138.171 46.5074 138.171 46.506ZM138.052 33.8372C138.09 33.1723 138.235 30.5382 138.112 30.1787C137.697 28.9604 137.961 36.3921 137.591 30.9147C137.533 30.9398 137.476 30.9148 137.418 30.9147C137.398 31.9138 137.38 32.91 137.364 33.9163C137.594 33.8624 137.821 33.8983 138.052 33.8372ZM93.6719 64.8091C94.6938 64.8411 99.5653 64.6457 97.9773 64.3828C97.51 64.3058 95.3352 64.682 94.5086 64.6657C93.9733 64.6551 94.5732 64.4488 93.5167 64.5247C93.5634 64.6156 93.5922 64.7164 93.6748 64.8085C93.6738 64.8087 93.6729 64.8089 93.6719 64.8091ZM91.7557 66.0093C92.8123 65.9726 93.8833 65.926 94.947 65.887C94.1707 65.652 92.6434 65.8029 92.5535 65.4722C92.8445 65.4472 93.1322 65.4222 93.4232 65.3972C93.646 65.4695 93.8653 65.5418 94.0845 65.6141C94.9974 65.4345 94.4445 65.3453 96.1444 65.3972C95.1166 64.8973 94.9257 64.629 92.0145 65.1347C92.5644 64.8635 92.0468 63.9798 90.4332 64.6113C90.1313 64.7286 91.392 64.8069 91.4064 64.8256C91.6003 65.0576 90.9008 65.2057 91.1088 65.4249C91.2023 65.5241 91.9714 65.5226 92.0864 65.6602C92.1395 65.7274 91.408 65.919 91.7557 66.0093ZM89.6498 64.8326C89.9768 64.692 88.8592 64.3585 87.8888 64.4261C86.3757 64.5311 88.762 64.8483 89.6498 64.8326ZM7.57574 17.4286C7.57585 17.4305 7.57595 17.4324 7.57605 17.4343C7.57574 17.4333 7.57544 17.4324 7.57513 17.4314C7.57534 17.4305 7.57554 17.4295 7.57574 17.4286ZM137.889 37.2657C137.77 36.4823 137.787 35.3228 137.597 35.4084C137.634 35.0274 137.671 34.6422 137.708 34.2613C137.651 34.2649 137.594 34.272 137.537 34.2756C137.502 35.422 137.466 36.5649 137.43 37.7113C137.583 37.5675 137.736 37.4346 137.889 37.2657ZM138.022 24.7766C138.041 23.3356 137.783 24.5437 137.658 24.2274C137.533 23.9112 137.635 22.6275 137.456 22.7784C137.449 23.6266 137.442 24.5113 137.435 25.3703C137.63 25.1438 137.828 24.9857 138.022 24.7737C138.022 24.7747 138.022 24.7756 138.022 24.7766ZM42.7941 64.6312C43.7715 64.6872 43.3727 64.8844 45.3026 64.6534C45.3011 64.6534 45.2997 64.6534 45.2983 64.6534C43.4619 64.4919 41.0977 64.348 39.071 64.5042C40.3106 64.7123 41.2561 64.5437 42.7941 64.6312ZM137.589 49.9244C137.745 50.3371 137.876 48.415 137.73 47.9909C137.495 47.3047 137.351 49.2954 137.589 49.9244ZM6.43568 58.981C5.61474 57.5578 5.52449 60.8965 7.95116 63.2064C8.11805 63.4148 6.98906 61.7133 7.43481 62.137C7.46632 62.1877 8.14698 63.0577 8.3942 63.1974C8.62989 63.3448 8.54456 63.0386 8.89734 63.2974C9.48554 63.7674 10.7806 64.919 11.3783 65.0175C11.4437 65.0411 10.6392 64.3443 10.6011 64.2932C9.78609 63.6229 8.88882 63.0936 8.76841 62.9684C8.17728 62.3469 8.44358 62.2936 8.34548 62.1015C8.16643 61.738 7.70758 61.2114 7.68985 61.1617C7.18375 60.0033 8.6702 62.4491 9.07477 62.6062C9.96747 63.1418 9.33064 62.5189 11.32 63.7511C11.5207 63.8758 13.8028 65.0985 11.0588 63.3017C12.4686 64.0696 13.0879 64.0813 13.0786 64.052C13.0797 63.9977 12.5016 63.7926 11.7754 63.3787C10.2479 62.6301 8.61182 60.5526 8.38622 60.0921C8.12006 59.6963 8.2779 60.4302 8.06051 60.2163C7.53496 59.7248 7.12482 58.5942 6.88206 58.7777C6.33641 59.196 7.31273 60.6486 7.90458 61.6081C7.72536 61.5851 7.58958 61.6217 7.35336 61.4979C7.52594 61.5982 7.21835 61.0275 6.95424 60.3846C6.68082 59.7443 6.46815 59.0283 6.43685 58.9807C6.43646 58.9808 6.43607 58.9809 6.43568 58.981ZM21.6613 65.3065C23.2894 65.4937 23.1741 65.1021 24.6657 65.3261C25.981 64.9744 23.3866 64.998 23.0844 64.9782C21.7045 64.8895 21.7362 64.5071 20.3244 64.6248C20.8095 64.851 21.2049 65.0797 21.6613 65.3065ZM9.12956 62.0359C9.93563 62.6355 8.76147 61.3283 8.7818 61.2286C8.72662 60.8055 9.40898 61.6479 9.91687 62.1763C10.4278 62.685 10.6092 63.1659 9.12956 62.0359ZM100.014 65.5971C100.567 65.6105 100.216 65.4206 100.704 65.3645C101.193 65.308 102.863 65.4704 102.822 65.3523C102.779 65.2339 99.7171 64.9268 102.79 64.8604C102.686 64.7939 102.721 64.7443 102.671 64.6843C101.826 64.6825 100.974 64.6796 100.129 64.6779C100.593 64.8691 101.068 65.0704 101.514 65.2553C101.039 65.4075 100.773 65.2122 100.747 65.2122C100.747 65.2124 100.747 65.2126 100.747 65.2128C99.8635 65.2282 98.7719 65.5672 100.014 65.5971ZM56.4591 65.001C56.2938 65.4764 57.5983 64.9455 58.1338 64.8866C58.6692 64.8279 59.405 65.0039 59.1286 64.7993C58.2624 64.6582 56.4771 64.948 56.4591 65.0017C56.4591 65.0014 56.4591 65.0012 56.4591 65.001ZM30.5063 65.3056C31.871 65.1902 31.6543 65.0666 33.3238 65.2076C33.2591 65.0927 33.1944 64.9753 33.1297 64.8622C31.8036 64.8599 31.8968 65.1934 30.3625 65.0593C30.111 65.0372 30.6496 64.7707 29.5144 64.8564C29.8448 64.9986 30.1795 65.1564 30.5063 65.3056ZM37.2698 64.8796C35.7028 64.8971 34.46 65.8269 37.346 65.4075C37.7737 65.3449 38.4482 64.8662 37.2698 64.8796ZM85.5601 65.6205C88.2256 65.6474 85.1974 65.4973 84.5035 65.3544C90.7089 65.2401 83.803 65.3935 83.1838 64.9183C82.4256 65.0537 81.0065 65.3631 82.583 65.446C83.2407 65.4804 83.0006 65.3389 83.0401 65.3395C84.2512 65.3745 84.1045 65.606 85.5601 65.6205ZM18.8323 65.3294C18.9329 65.3224 18.7754 65.1619 19.0953 65.1298C19.4156 65.098 20.1404 65.2103 20.2123 65.1118C20.2838 65.0127 18.8298 64.9358 18.3838 65.0081C17.9381 65.081 17.923 65.3912 18.8323 65.3294ZM29.0616 65.7249C30.3933 65.6094 28.2156 65.0181 27.926 65.0209C25.3814 65.0518 29.1371 65.5377 29.0616 65.7249ZM79.3701 66.6249C82.5832 66.3245 80.2328 65.8026 78.2201 65.4899C77.9543 65.5535 77.6816 65.6171 77.4194 65.6801C78.627 65.2939 80.7433 64.9123 76.0351 65.2488C78.6122 65.3397 76.4542 65.4434 76.4376 65.4652C76.1537 66.1745 79.9711 65.8451 79.3673 66.6249C79.3682 66.6249 79.3692 66.6249 79.3701 66.6249ZM14.6306 65.0588C13.3161 65.042 10.287 63.4575 11.5378 64.4958C12.5515 64.8661 13.5995 65.0508 14.6306 65.0588ZM132.101 66.1217C133.309 65.9272 134.376 65.4293 135.57 64.5034C134.32 65.0898 135.041 64.5482 135.35 64.2314C135.825 63.7504 134.534 64.7326 134.505 64.6964C134.389 64.4476 135.268 63.9812 133.26 65.066C133.735 64.7483 134.17 64.3966 134.573 64.0126C133.146 64.9345 132.657 64.8885 131.621 65.0237C132.729 65.1546 131.393 65.3689 130.183 65.7383C129.552 65.9396 131.464 66.2716 132.105 66.1204C132.104 66.1208 132.102 66.1213 132.101 66.1217ZM82.6908 66.7204C83.0214 66.6347 83.324 66.5187 83.6439 66.4207C83.9925 66.4114 84.3417 66.4032 84.6904 66.3939C84.7335 66.4697 84.7694 66.549 84.8197 66.6218C85.2791 66.6439 85.1001 66.5384 85.2366 66.5285C85.2366 66.5289 85.2366 66.5293 85.2366 66.5297C87.1946 66.3898 87.9964 66.4055 89.5305 66.6398C89.5305 66.4076 89.5305 66.1754 89.5305 65.9431C89.1857 65.9653 88.8373 65.9869 88.4926 66.0084C88.3093 66.1332 88.1253 66.2581 87.942 66.3829C87.5431 66.3141 87.1478 66.2457 86.7489 66.1769C86.4293 66.2218 86.0452 66.269 85.7685 66.3127C84.1765 65.6636 87.7947 66.1045 87.827 65.8351C87.8485 65.6619 84.2046 65.6694 83.6798 65.789C83.6043 65.8065 84.3918 66.2899 83.0588 66.038C82.8503 65.9984 82.777 64.9526 81.3395 65.7994C81.1347 65.9195 81.85 66.5692 82.6908 66.7204ZM95.9216 67.0576C93.8731 66.3887 101.434 67.096 98.1713 66.5455C99.1021 66.2382 98.9293 66.2422 97.9916 65.9694C97.9091 65.9449 98.557 65.8605 98.502 65.8497C97.625 65.6993 96.5685 65.779 96.5613 65.5055C96.3242 65.5201 96.1012 65.533 95.8641 65.5476C96.8518 65.8054 95.2812 65.9786 94.6739 66.1961C94.3973 66.2946 95.0331 66.325 94.8004 66.4113C94.7141 66.4427 93.8263 66.3799 93.7898 66.4702C93.7143 66.6743 94.272 66.9502 95.2173 67.1007C95.2173 67.1009 95.2173 67.1011 95.2173 67.1013C95.4542 67.0879 95.6846 67.0716 95.9216 67.0576ZM52.1379 66.5019C51.7893 66.1321 50.3919 66.0263 53.0766 65.8455C52.9438 65.7726 52.807 65.7004 52.6741 65.6276C52.2214 65.634 51.7828 65.6404 51.3229 65.6462C49.9428 66.7356 47.4238 65.5062 49.0372 66.2788C49.2133 66.3628 50.2873 66.269 49.227 66.497C49.2284 66.4972 49.2299 66.4974 49.2313 66.4976C50.7116 66.4276 50.8981 66.2966 52.1379 66.5019ZM62.0467 66.244C65.461 65.466 57.3287 65.8099 58.6872 66.0164C58.8094 66.035 62.3127 65.8678 62.0467 66.244ZM34.6492 66.9212C36.1798 66.9346 36.2813 66.5148 36.1269 66.3637C35.9724 66.212 34.9124 66.3653 34.7757 66.3414C34.33 66.2626 35.2753 66.2106 34.6966 66.1027C34.505 66.0677 31.8388 65.918 31.7167 65.9361C31.0383 66.0365 32.03 66.3829 31.836 66.4226C31.2035 66.5525 30.3447 66.3724 30.1613 66.5565C29.7661 66.9495 31.3672 66.537 31.6376 66.5303C32.4535 66.5116 32.3822 66.7328 32.9932 66.7772C33.6037 66.8214 34.0027 66.7456 34.5414 66.7613C34.7206 66.7665 34.5716 66.9198 34.6492 66.9212ZM39.7107 66.0347C38.1119 66.3525 42.0046 66.6981 42.4664 66.6237C43.8249 66.4026 40.4762 65.883 39.7107 66.0347ZM90.7926 66.0481C89.3303 66.2785 92.7368 66.4649 93.7107 66.3722C93.5301 66.2765 91.2956 65.9688 90.7926 66.0481ZM78.4789 66.6237C79.8231 66.5519 78.0405 66.0329 76.9192 66.0411C76.2618 66.3822 76.8804 66.3146 77.6135 66.3286C78.3457 66.3427 77.4302 66.6795 78.4789 66.6237ZM18.0459 66.5419C18.336 66.5473 23.0099 66.2654 20.3244 66.1482C20.1195 66.1395 16.8478 66.1891 16.5998 66.2416C16.1008 66.3477 17.2985 66.5267 18.0459 66.5419ZM72.0316 67.1275C72.7432 66.8325 73.4433 66.8364 72.7892 66.49C72.7883 66.49 72.7873 66.49 72.7863 66.49C74.5868 66.3839 74.6666 67.0926 75.0547 67.0775C76.4123 67.0243 75.1261 66.5198 75.9776 66.3542C73.9974 66.5099 74.5653 66.1698 73.0595 66.1482C72.7216 66.1435 71.3697 66.3466 71.172 66.4732C70.9747 66.5998 71.6651 66.9794 72.0316 67.1275ZM11.3275 65.5343C12.831 66.3671 14.4038 66.222 12.2981 65.48C11.3183 65.0483 10.4594 64.9905 11.3275 65.5343ZM139.735 31.5616C139.61 31.8024 139.485 32.0504 139.361 32.3091C139.33 31.7271 139.299 31.1446 139.268 30.5625C139.308 31.0226 139.347 31.4832 139.386 31.9469C139.43 30.8543 139.658 30.3547 139.735 31.5587C139.735 31.5597 139.735 31.5607 139.735 31.5616ZM125.373 1.16942C124.884 1.04869 123.921 1.42255 124.043 1.45171C124.963 1.66903 126.051 1.33682 125.373 1.16942ZM92.9532 67.1837C94.7703 67.236 93.5207 66.6281 92.4069 66.5864C93.0883 66.7027 91.922 67.1539 92.9532 67.1837ZM138.119 6.2099C138.17 6.38677 138.216 6.56456 138.267 6.75968C138.023 6.19381 137.991 6.08089 138.119 6.2099ZM18.7891 67.0787C19.0666 67.1253 21.1182 67.1638 21.3953 67.1062C21.9704 66.9848 20.3705 66.6492 19.4288 66.7525C19.3246 66.7635 18.5131 67.032 18.7935 67.0787C18.792 67.0787 18.7906 67.0787 18.7891 67.0787ZM139.968 29.1035C139.962 29.1067 139.957 29.105 139.951 29.0992C139.957 29.1013 139.962 29.1007 139.968 29.1035ZM84.5329 0.414416C84.5441 0.423846 84.5501 0.433204 84.5488 0.442187C84.5444 0.433367 84.5358 0.424087 84.5329 0.414416ZM33.2591 67.5947C33.942 68.1739 35.5161 67.8659 34.2726 67.5795C34.203 67.5644 33.4247 67.5959 33.2591 67.5947Z" fill="#9C6B4B"/>
    </g>
  </g>
<defs>
<filter id="filter0_d_52_37" x="0.0720825" y="0.414429" width="144.997" height="76.0856" filterUnits="userSpaceOnUse" color-interpolation-filters="sRGB">
<feFlood flood-opacity="0" result="BackgroundImageFix"/>
<feColorMatrix in="SourceAlpha" type="matrix" values="0 0 0 0 0 0 0 0 0 0 0 0 0 0 0 0 0 0 127 0" result="hardAlpha"/>
<feOffset dy="4"/>
<feGaussianBlur stdDeviation="2"/>
<feComposite in2="hardAlpha" operator="out"/>
<feColorMatrix type="matrix" values="0 0 0 0 0 0 0 0 0 0 0 0 0 0 0 0 0 0 0.25 0"/>
<feBlend mode="normal" in2="BackgroundImageFix" result="effect1_dropShadow_52_37"/>
<feBlend mode="normal" in="SourceGraphic" in2="effect1_dropShadow_52_37" result="shape"/>
</filter>
</defs>
</svg>
