<svg viewBox="1 1 219 66" preserveAspectRatio="none" xmlns="http://www.w3.org/2000/svg">
<path d="M145.065 67.9677C122.976 67.978 98.7916 68.0396 76.6137 67.9594C73.891 67.9496 74.077 67.8153 73.3132 67.7975C71.2251 67.7486 69.9678 67.9071 68.4457 67.8954C61.0464 67.8394 54.1248 67.8166 46.8658 67.7658C39.3883 67.7135 42.9254 67.296 40.3272 67.1942C35.2508 66.995 39.5688 67.5395 37.5734 67.6618C31.7538 67.6291 25.8826 67.5701 20.0527 67.5104C21.4759 67.4596 22.8995 67.4098 24.3383 67.3627C21.7973 67.3515 18.1605 67.2675 22.4158 67.1252C21.4752 67.086 20.5973 67.0401 19.6307 67.0019C19.3657 67.2002 14.8669 67.2161 14.4556 67.3337C14.0451 67.4512 16.5745 67.4242 16.5589 67.4345C16.4841 67.4998 14.3772 67.4962 12 67.4706C8.5116 67.5787 5.19153 65.2157 4.91294 64.8844C3.26819 63.3629 4.84651 64.5342 3.55219 63.1867C2.53019 61.9527 2.34994 61.7336 2.09315 61.4011C1.89093 61.0575 1.4942 60.531 1.3002 58.3526C0.9345 57.2739 0.917283 56.8002 0.925611 56C0.936454 55.6258 0.952768 55.1672 0.957852 54.4964C0.959719 54.2366 0.834653 54.4383 0.831387 54.3239C0.73856 51.3365 0.971133 53.6329 0.983731 53.6173C1.19775 53.346 1.10261 50.1401 1.12314 49.4647C1.37882 40.9899 1.55192 34.7803 1.61117 25.8377C1.62377 23.9045 1.53694 18.0168 1.57333 16.1462C1.60925 14.3012 1.76345 15.2911 1.83749 14.3255C1.66471 13.6046 1.56353 12.8991 1.52943 12C1.49921 10.929 1.66501 9.52509 2.55447 7.81166C2.929 6.51087 2.89699 6.63138 4.5654 4.67566C5.90803 3.00644 9.52704 1.0355 12 1.47079C9.28653 1.64521 9.4739 1.66402 6.80297 3.05765C6.37176 3.27199 3.87778 4.96755 2.78537 7.43647C1.5922 9.84924 1.85213 12.3578 1.96776 11.9474C2.03735 11.7488 2.06275 10.8101 2.24792 9.92128C2.41782 9.02969 2.735 8.20768 2.77272 8.15416C3.22625 7.53331 2.56047 9.27186 2.34874 10.8766C2.36261 10.4725 2.41835 9.98342 2.49812 9.5521C1.88887 11.8912 2.3877 11.6957 2.36094 12C2.37378 12.1726 2.31618 12.5072 2.09042 13.4962C2.0107 13.8483 1.92758 13.7119 1.84287 14.2923C1.8779 14.4115 1.96476 13.7015 1.98032 14.313C1.996 14.9369 1.83108 16.1213 1.97006 16.2979C2.17217 16.5619 2.09252 13.9775 2.10434 13.7831C2.10312 13.781 2.1019 13.7789 2.10068 13.7768C2.20798 12.0574 2.22022 15.6484 2.23935 15.8199C2.36528 16.9307 2.46224 16.1732 2.56626 17.8401C2.62552 18.791 2.59058 21.2132 2.60971 22.107C2.62932 22.995 2.72493 21.6134 2.74546 22.2109C2.76598 22.8085 2.69334 23.5525 2.71714 24.2539C2.72763 24.5542 2.83426 24.5388 2.83799 24.6842C2.87902 26.2427 2.65722 25.2204 2.67075 26.6337C2.67974 27.5493 2.8865 30.6224 2.94809 28.5042C2.96955 29.5224 2.98526 30.5153 3.00205 31.5283C3.03377 30.8893 3.05532 30.2292 3.09263 29.6058C3.04184 31.5121 3.22431 32.3745 3.23789 33.5692C3.25142 34.7643 3.03245 35.8357 3.13926 37.1503C3.36649 39.9563 3.2615 33.0081 3.3021 32.1455C3.31806 31.8093 3.48958 33.1002 3.49448 33.299C3.51594 34.1821 3.39328 35.2267 3.39878 35.9074C3.41931 38.3444 3.58119 39.8366 3.61387 42.1592C3.67396 46.4387 3.7279 51.2752 3.77038 56C3.75967 59.3501 6.01029 62.2877 8.57577 63.3979C9.97311 64.0266 11.1033 64.2137 12 64.2719C12.523 64.2968 12.9767 64.3151 13.3852 64.3134C16.3151 64.3012 16.6741 64.1426 19.2296 64.1342C23.0333 64.1211 28.3919 64.2596 31.5669 64.2895C33.7648 64.31 35.7547 64.1565 36.3264 64.1527C44.2716 64.0977 53.9371 64.1011 60.5208 64.0993C63.6172 64.0983 65.0878 64.2708 65.7271 64.2658C68.4757 64.2443 67.7387 64.0968 69.967 64.1117C71.1708 64.1196 71.396 64.2612 71.557 64.2667C72.9756 64.3134 73.2581 64.1285 74.3649 64.1225C80.7299 64.0875 86.8612 64.2085 93.1638 64.2262C93.6211 64.2276 93.5805 64.3095 93.8767 64.3053C95.1486 64.2852 94.5573 64.1562 95.8865 64.1469C98.6509 64.1268 101.49 64.1481 104.42 64.1645C104.711 64.1661 104.841 64.2713 105.505 64.2714C106.17 64.2714 106.675 64.1716 107.719 64.1771C110.447 64.1916 113.139 64.311 116.028 64.3175C116.506 64.3185 117.098 64.1916 117.815 64.193C120.065 64.1972 123.397 64.3124 125.325 64.3166C131.685 64.3296 137.552 64.2574 143.544 64.2565C144.952 64.2565 146.199 64.3741 146.932 64.3769C148.583 64.3829 147.337 64.2719 149.01 64.2714C162.676 64.2686 176.395 64.3191 190.222 64.3102C195.652 64.3069 202.262 64.192 207.51 64.2238C208.128 64.2276 208.602 64.2427 209 64.2623C209.836 64.2979 210.284 64.3304 211.185 64.1054C213.362 63.3714 213.7 62.9445 215.297 61.2177C216.431 59.8648 217.354 57.9363 217.346 56C217.347 55.8446 217.347 55.69 217.347 55.5365C217.334 53.1254 217.144 52.0128 217.121 49.2431C217.102 46.962 217.189 43.777 217.175 41.2933C217.119 31.4866 217.073 21.7444 217.05 12C217.143 7.7187 213.284 3.86269 209 3.96335C201.345 3.95804 193.665 3.93359 185.931 3.88316C177.85 3.83043 168.886 3.85784 160.535 3.67026C159.751 3.65251 160.951 3.46822 158.436 3.50693C157.085 3.52793 155.199 3.68673 152.076 3.69468C133.51 3.74134 113.705 3.40166 94.8271 3.46885C66.5489 3.57011 37.242 4.88156 12.6687 2.9625C11.4634 2.86826 12.117 2.40644 12.8391 2.27524C13.5093 2.36901 14.1289 2.48038 14.8302 2.58628C15.7134 2.00924 15.5577 2.15949 18.8311 2.21127C20.8464 2.24344 19.2367 1.99665 20.3109 1.92661C21.7035 1.83608 28.2421 1.55105 26.9846 1.9332C27.3899 1.86694 27.764 1.80347 28.1589 1.73862C32.8926 1.68076 37.4917 1.58508 42.1214 1.47543C42.9212 1.45626 42.9581 1.33636 43.7841 1.31723C46.0028 1.26499 47.7642 1.34376 50.0505 1.33163C51.2924 1.3251 51.4647 1.18654 53.0911 1.1954C54.7166 1.20432 54.681 1.39138 56.8987 1.18808C55.4542 0.953381 61.898 1.12368 64.1897 1.10922C64.5222 1.10735 67.2499 0.896507 68.6998 0.920743C70.1545 0.944536 72.3631 1.07923 74.6128 1.00277C75.6676 0.966847 76.3076 0.802641 77.4456 0.793301C78.2458 0.786769 79.207 0.932725 80.2202 0.938809C81.2331 0.944872 83.4246 0.82506 83.8262 0.823086C85.2757 0.815155 83.6766 0.917771 84.668 0.92294C89.4536 0.946269 95.0139 1.00126 99.7321 0.932217C100.312 0.923846 99.5095 0.802945 99.5866 0.798916C103.524 0.650575 101.423 0.808099 102.486 0.916348C103.516 1.02102 111.054 0.963923 111.109 0.75375C111.341 1.01694 113.016 0.815919 113.451 0.808193C115.145 0.77836 114.813 1.00607 116.455 0.935635C117.057 0.909984 115.884 0.756074 116.532 0.760586C118.132 0.771784 119.572 1.01904 121.703 1.04379C122.217 1.04986 122.384 0.939715 123.299 0.943448C124.214 0.947237 128.052 1.08198 126.281 0.849697C128.609 1.03584 129.078 0.933677 131.785 0.938809C132.471 0.940373 133.354 1.11787 134.813 1.06283C135.307 1.04416 135.292 0.87307 136.035 0.87167C137.734 0.867986 139.335 1.04509 141.491 1.05209C145.523 1.06562 149.816 0.941114 154.019 0.98544C155.162 0.997605 154.877 1.16962 156.538 1.17294C156.783 1.17294 158.784 1.02419 159.932 1.03817C160.623 1.04657 164.204 1.15111 164.927 1.15951C166.121 1.17298 166.334 1.00661 166.988 1.03915C168.88 1.13294 167.362 1.37782 169.638 1.04281C170.387 1.22852 171.717 1.20994 172.143 1.43857C172.917 1.18802 173.921 1.42874 175.423 1.34482C176.924 1.26083 178.156 0.775568 178.519 1.2977C179.221 1.23424 182.209 1.12594 182.713 1.11801C184.199 1.09563 183.405 1.24006 184.526 1.22055C184.723 1.21728 184.516 1.11853 185.783 1.12826C186.615 1.1348 192.706 1.14085 193.07 1.15439C197.22 1.309 190.808 1.25233 189.911 1.35922C189.753 1.33115 189.596 1.30298 189.427 1.27524C187.593 1.2286 188.637 1.45172 189.468 1.50351C190.3 1.55529 191.853 1.45589 192.544 1.52914C192.889 1.56592 192.675 1.83342 191.634 1.80112C192.748 1.88351 191.226 1.97051 191.667 2.04794C192.152 2.13283 197.159 2.15896 197.185 2.01157C196.25 2.00644 195.086 2.01153 194.14 2.00546C192.904 1.7493 196.66 0.874481 200.105 1.22397C202.604 1.47685 198.485 1.67794 204.397 1.46567C203.488 1.4554 202.719 1.43148 201.893 1.42074C201.805 1.22863 203.145 1.43987 203.836 1.37875C204.168 1.34887 202.122 1.21284 203.898 1.16757C205.393 1.4364 206.551 1.17755 209 1.16327C209.058 1.16295 209.117 1.16322 209.177 1.16411C209.118 1.1669 209.059 1.17016 209 1.17389C208.342 1.21912 207.684 1.26416 207.026 1.30942C211.223 1.50259 201.9 1.57025 209 1.67583C209.232 1.67919 209.475 1.68991 209.74 1.71205C209.492 1.69658 209.248 1.68948 209 1.69064C208.228 1.69451 207.457 1.69558 206.679 1.7059C207.173 1.80671 206.383 2.10261 206.825 2.16513C207.437 2.25184 208.204 2.26512 209 2.26048C209.692 2.25505 210.41 2.31574 211.044 2.45924C211.631 2.59965 211.247 2.59431 211.297 2.60552C212.084 2.82548 211.946 2.6636 212.63 2.91097C213.544 3.15576 215.621 4.80856 215.867 5.15933C216.661 5.93085 215.536 4.44628 215.599 4.52016C216.242 4.89398 217.102 6.11865 217.159 5.97747C215.387 2.19293 204.475 0.567269 213.831 2.77585C212.7 2.06994 212.242 1.8455 212.617 1.83766C212.969 1.85856 214.202 2.1301 215.812 3.3639C217.107 4.42045 217.212 4.73892 217.252 4.82579C217.273 4.93181 217.177 4.88687 217.637 5.60451C217.696 5.69512 218.363 6.63695 218.808 7.69393C219.274 8.74193 219.502 9.87087 219.57 9.97092C219.323 9.85561 219.319 11.2309 218.947 10.3692C218.925 10.2366 218.503 8.61843 218.47 9.23488C218.468 9.54147 218.42 10.3712 218.27 10.2649C218.414 10.5671 218.556 10.8951 218.672 11.224C218.697 11.5099 218.707 11.765 218.707 12C218.705 13.7977 218.616 14.2161 218.474 15.4216C218.541 15.3593 218.823 14.0965 218.737 16.014C218.732 16.1124 218.631 16.1974 218.581 17.1716C218.48 19.1408 218.449 19.5518 218.151 18.0404C218.321 22.1184 217.989 22.997 218.086 27.179C218.469 26.3476 218.374 24.8773 218.3 21.0478C218.391 20.8815 218.481 20.8036 218.573 20.6321C218.367 25.7292 218.388 23.2105 218.573 26.0983C218.618 26.805 218.569 30.5731 218.827 29.3156C218.888 29.0188 218.881 26.6778 218.976 26.9463C218.994 26.9982 219.041 29.8441 219.016 30.095C218.711 33.2439 218.499 27.6167 218.61 36.2886C218.613 36.5275 218.725 36.6114 218.74 37.0784C218.769 37.9563 218.64 37.9674 218.67 38.7515C218.7 39.536 218.873 40.6231 218.713 41.8025C218.421 43.959 218.253 38.8722 218.408 36.6066C218.026 35.6868 218.018 51.8732 218.05 52.8761C218.192 57.2556 218.11 49.9678 218.216 49.5923C218.261 49.4364 218.829 49.514 218.46 47.6698C218.351 47.1242 218.207 49.4046 218.147 48.0439C218.087 46.6825 218.254 47.2219 218.266 47.1232C218.306 46.7845 218.244 45.3366 218.267 45.1487C218.627 42.2595 219.171 42.5245 218.368 46.3542C218.549 48.0222 218.839 44.1935 218.962 46.2669C219.112 48.7869 218.853 50.6263 218.841 50.9432C218.703 54.7406 219.081 50.3619 218.96 55.0002C218.897 57.4083 218.733 51.9653 218.731 56C218.731 56.2859 218.72 56.6189 218.682 57.0041C218.366 59.3909 217.935 59.8604 218.055 59.8967C218.126 59.9249 218.438 59.4278 218.512 59.648C218.535 59.7022 218.293 60.3752 218.205 60.593C218.093 60.8017 218.361 60.6369 218.92 58.8187C218.874 58.694 218.828 58.474 218.81 58.2293C218.997 57.6206 219.31 56.698 219.425 56C219.477 55.7198 219.514 55.4874 219.518 55.3452C219.583 53.0018 219.38 53.115 219.619 51.733C219.358 52.72 219.515 51.1137 219.46 50.5109C219.257 48.2728 219.182 51.2075 219.443 46.1837C219.32 46.8385 219.2 47.4307 219.079 48.0647C219.074 47.4621 219.07 46.8591 219.066 46.2565C219.335 45.3576 219.301 42.1561 219.572 45.0552C219.649 41.5689 219.59 40.1597 219.381 39.3958C219.341 39.2506 219.325 38.7268 219.321 38.1113C219.262 38.2277 219.08 38.3767 219.058 38.2797C218.861 37.4121 219.2 36.0669 219.33 36.5255C219.336 36.095 219.343 35.7542 219.346 35.6339C219.366 34.8712 219.483 36.3664 219.524 35.7482C219.537 35.5444 219.511 33.3955 219.559 33.3539C219.864 33.0949 219.644 36.6313 219.821 29.5297C219.543 29.3582 219.604 32.6567 219.309 31.8097C218.993 30.9003 219.418 29.0455 219.029 28.6401C219.093 28.4895 219.146 28.4229 219.219 28.293C219.05 25.42 219.373 25.3819 219.445 24.5042C219.584 22.7998 219.563 14.9639 219.283 21.9997C219.255 20.9708 219.242 19.9204 219.217 18.8967C219.798 18.663 219.567 19.2864 219.655 14.3554C219.674 13.3218 219.906 12.9517 219.667 12C219.655 11.9484 219.641 11.8955 219.626 11.8412C219.774 11.9189 219.809 11.0877 219.654 10.2091C219.513 9.32864 219.165 8.44112 219.124 8.28629C218.727 6.95962 220.195 9.49356 220.096 12C220.081 13.1985 220.001 14.2929 219.816 14.6152C220.021 15.8202 219.75 15.8159 219.786 17.1612C219.838 19.1047 219.891 19.3746 219.691 21.6817C219.972 23.9525 219.815 12.792 220.188 19.5576C220.426 23.871 220.597 41.4427 220.704 56C220.837 63.6921 213.428 68.1521 209 67.8065C207.709 67.8141 206.622 67.8205 205.785 67.8256C189.131 67.9269 180.375 67.993 165.415 67.9762C163.939 67.9748 152.799 68.0018 155.114 67.6767C155.447 67.63 160.238 67.5064 156.128 67.2511C156.964 67.4018 154.548 67.4997 154.345 67.5155C149.695 67.8757 152.387 67.964 145.065 67.9677ZM123.361 65.0678C132.916 65.142 125.896 64.9246 127.881 64.4337C126.655 64.4323 125.433 64.431 124.207 64.4296C124.529 64.4604 124.847 64.4911 125.169 64.5219C125.17 64.5219 125.172 64.5219 125.173 64.5219C124.57 64.7038 123.963 64.8858 123.361 65.0678ZM3.26084 26.8602C3.32547 27.233 3.39023 27.6015 3.45347 28.0054C3.43341 29.2679 3.41371 30.5256 3.39365 31.7881C3.3498 31.6374 3.30542 31.4919 3.26157 31.3412C3.26343 29.8477 3.26547 28.3589 3.26084 26.8602ZM218.337 35.2702C218.516 33.4828 218.196 33.644 218.342 31.2693C218.105 31.5603 217.874 31.8834 217.64 32.19C217.675 33.9975 217.765 34.4083 217.707 36.3717C217.783 36.1431 217.859 35.9092 217.936 35.6858C217.919 35.3589 217.901 35.011 217.886 34.6945C218.099 34.1907 218.131 37.3281 218.337 35.2764C218.337 35.2743 218.337 35.2722 218.337 35.2702ZM218.241 16.9534C218.268 16.112 218.36 13.0894 218.317 12C218.311 11.8543 218.299 11.7465 218.285 11.6868C218.193 11.3284 218.166 11.5397 218.137 12C218.026 13.7556 218.103 18.8878 217.873 12.7281C217.827 12.7643 217.781 12.7281 217.735 12.7281C217.718 14.1726 217.704 15.6128 217.691 17.0677C217.875 16.9898 218.057 17.0417 218.241 16.9534ZM157.922 65.0473C159.399 65.0729 166.443 64.9166 164.147 64.7062C163.471 64.6446 160.327 64.9456 159.132 64.9325C158.358 64.9241 159.225 64.7591 157.698 64.8197C157.765 64.8925 157.807 64.9731 157.926 65.0468C157.925 65.0469 157.923 65.0471 157.922 65.0473ZM155.152 66.0075C156.679 65.9781 158.228 65.9408 159.766 65.9096C158.643 65.7216 156.435 65.8423 156.305 65.5778C156.726 65.5577 157.142 65.5378 157.562 65.5177C157.885 65.5756 158.202 65.6335 158.518 65.6913C159.838 65.5476 159.039 65.4762 161.497 65.5177C160.011 65.1178 159.735 64.9032 155.526 65.3078C156.321 65.0908 155.572 64.3839 153.239 64.8891C152.803 64.9829 154.626 65.0455 154.646 65.0605C154.927 65.2461 153.915 65.3646 154.216 65.5399C154.351 65.6193 155.463 65.6181 155.63 65.7282C155.706 65.7819 154.649 65.9352 155.152 66.0075ZM152.107 65.0661C152.58 64.9536 150.964 64.6868 149.561 64.7409C147.373 64.8249 150.823 65.0787 152.107 65.0661ZM3.2606 26.8519C3.26068 26.8547 3.26076 26.8575 3.26084 26.8602C3.2606 26.8588 3.26035 26.8575 3.26011 26.8561C3.26027 26.8547 3.26043 26.8533 3.2606 26.8519ZM218.111 21.9103C218.016 20.7778 218.03 19.1012 217.878 19.2251C217.907 18.6743 217.937 18.1173 217.967 17.5665C217.921 17.5717 217.875 17.5821 217.83 17.5873C217.802 19.2447 217.773 20.8972 217.744 22.5546C217.866 22.3468 217.989 22.1545 218.111 21.9103ZM215.324 5.29427C213.876 4.03441 214.974 5.23245 214.59 5.04026C214.236 4.826 212.853 3.93535 212.948 4.17269C213.906 4.66043 214.807 5.35817 215.526 6.17424C215.451 5.85687 215.42 5.59858 215.322 5.29163C215.323 5.29251 215.324 5.29339 215.324 5.29427ZM84.3619 64.9049C85.775 64.9497 85.1984 65.1075 87.9887 64.9228C87.9866 64.9228 87.9845 64.9228 87.9824 64.9228C85.3273 64.7935 81.9092 64.6784 78.9789 64.8034C80.7712 64.9698 82.1382 64.835 84.3619 64.9049ZM217.871 40.2126C217.996 40.8093 218.1 38.0302 217.984 37.4171C217.796 36.425 217.681 39.3032 217.871 40.2126ZM27.2792 66.0124C25.1293 66.3973 29.2029 66.8293 33.4686 66.6427C33.8375 66.6264 31.0836 66.504 31.8994 66.4289C31.9819 66.4215 33.4937 66.4306 33.8677 66.3771C34.2418 66.3234 33.8489 66.1989 34.4621 66.1466C35.538 66.0553 37.9694 66.2245 38.7747 66.1046C38.8808 66.0886 37.3729 65.922 37.2783 65.9157C35.7299 65.8149 34.2378 66.0326 33.9986 66.0341C32.7671 66.0416 32.9532 65.8708 32.6414 65.8307C32.0541 65.7553 31.0202 65.8307 30.9475 65.8251C29.0785 65.6754 33.3491 65.7182 33.9258 65.6566C35.4793 65.4905 34.041 65.3361 37.7667 65.2423C38.1204 65.2335 42.3554 65.2435 37.0185 65.0524C47.4977 64.654 31.753 64.8258 30.0434 64.9135C29.2554 64.9541 30.4486 65.1169 29.9707 65.1901C28.8794 65.3576 27.0194 65.3871 27.1856 65.6232C27.5444 66.1195 29.9873 65.7943 31.6708 65.8778C31.4941 65.9856 31.4266 66.0907 31.0992 66.1962C31.6033 66.0543 27.4351 65.9834 27.2792 66.0114C27.2792 66.0117 27.2792 66.012 27.2792 66.0124ZM53.8076 65.4452C56.1616 65.595 55.9949 65.2817 58.1514 65.4608C60.0532 65.1795 56.3021 65.1984 55.8652 65.1825C53.8701 65.1116 53.916 64.8057 51.8747 64.8998C52.5762 65.0808 53.1478 65.2637 53.8076 65.4452ZM33.3335 65.3161C34.9078 65.1574 32.0906 65.1601 31.9763 65.1298C30.7323 64.808 39.168 64.8705 33.3335 65.3161ZM167.092 65.6776C167.892 65.6884 167.384 65.5365 168.089 65.4916C168.796 65.4464 171.211 65.5764 171.151 65.4818C171.089 65.3871 166.662 65.1415 171.105 65.0883C170.955 65.0351 171.005 64.9955 170.933 64.9474C169.711 64.946 168.479 64.9437 167.258 64.9423C167.928 65.0953 168.615 65.2563 169.26 65.4042C168.574 65.526 168.188 65.3698 168.152 65.3698C168.152 65.3699 168.152 65.3701 168.152 65.3703C166.874 65.3825 165.296 65.6538 167.092 65.6776ZM104.119 65.2008C103.88 65.5811 105.766 65.1564 106.54 65.1093C107.314 65.0623 108.378 65.2031 107.979 65.0395C106.726 64.9265 104.145 65.1584 104.119 65.2013C104.119 65.2012 104.119 65.201 104.119 65.2008ZM66.5959 65.4445C68.569 65.3522 68.2557 65.2533 70.6695 65.3661C70.576 65.2742 70.4824 65.1803 70.3889 65.0897C68.4716 65.0879 68.6064 65.3547 66.388 65.2475C66.0244 65.2297 66.8031 65.0166 65.1618 65.0851C65.6395 65.1989 66.1234 65.3251 66.5959 65.4445ZM76.3747 65.1037C74.1092 65.1177 72.3123 65.8615 76.4848 65.526C77.1033 65.4759 78.0785 65.0929 76.3747 65.1037ZM146.194 65.6964C150.048 65.7179 145.669 65.5978 144.666 65.4835C153.638 65.3921 143.653 65.5148 142.758 65.1347C141.662 65.2429 139.61 65.4905 141.889 65.5568C142.84 65.5843 142.493 65.4711 142.55 65.4716C144.301 65.4996 144.089 65.6848 146.194 65.6964ZM49.7174 65.4635C49.8628 65.4579 49.6353 65.3295 50.0977 65.3039C50.5607 65.2784 51.6088 65.3683 51.7126 65.2895C51.816 65.2102 49.7138 65.1487 49.0689 65.2064C48.4246 65.2648 48.4028 65.513 49.7174 65.4635ZM64.5071 65.7799C66.4326 65.6875 63.284 65.2145 62.8652 65.2167C59.1862 65.2414 64.6163 65.6302 64.5071 65.7799ZM137.244 66.4999C141.89 66.2596 138.491 65.842 135.581 65.5919C135.197 65.6428 134.803 65.6937 134.424 65.744C136.17 65.4352 139.23 65.1298 132.422 65.3991C136.148 65.4718 133.028 65.5548 133.004 65.5722C132.594 66.1396 138.113 65.8761 137.24 66.4999C137.241 66.4999 137.243 66.4999 137.244 66.4999ZM43.4552 65.3283C41.4332 65.3302 36.1769 65.4282 38.6292 65.6754C40.2398 65.5597 41.8446 65.444 43.4552 65.3283ZM213.363 65.5167C214.984 64.908 216.362 63.9031 217.626 62.1554C216.267 63.5478 217.063 62.5421 217.392 62.0014C217.899 61.1805 216.513 63.0546 216.454 63.0114C216.399 62.9293 216.609 62.6123 216.554 62.625C216.486 62.6211 216.248 63.0485 214.94 64.06C215.557 63.52 216.092 62.9171 216.551 62.2585C214.892 64.0852 214.194 64.2106 212.782 64.7343C214.276 64.406 212.478 65.2266 210.712 65.6989C209.806 65.9672 212.526 65.9309 213.369 65.514C213.367 65.5149 213.365 65.5158 213.363 65.5167ZM142.045 66.5763C142.523 66.5077 142.961 66.415 143.423 66.3366C143.927 66.3291 144.432 66.3226 144.936 66.3151C144.999 66.3757 145.051 66.4392 145.123 66.4975C145.788 66.5151 145.529 66.4307 145.726 66.4228C145.726 66.4231 145.726 66.4234 145.726 66.4237C148.557 66.3118 149.716 66.3244 151.934 66.5119C151.934 66.3261 151.934 66.1403 151.934 65.9545C151.436 65.9722 150.932 65.9895 150.434 66.0067C150.169 66.1066 149.903 66.2065 149.638 66.3063C149.061 66.2512 148.489 66.1966 147.913 66.1415C147.45 66.1774 146.895 66.2152 146.495 66.2502C144.193 65.7309 149.425 66.0836 149.471 65.8681C149.502 65.7295 144.234 65.7356 143.475 65.8312C143.366 65.8452 144.505 66.2319 142.577 66.0304C142.276 65.9987 142.17 65.1621 140.092 65.8395C139.795 65.9356 140.83 66.4553 142.045 66.5763ZM161.175 66.8461C158.213 66.3109 169.144 66.8768 164.427 66.4364C165.773 66.1906 165.523 66.1938 164.168 65.9755C164.048 65.9559 164.985 65.8884 164.905 65.8798C163.637 65.7594 162.11 65.8232 162.1 65.6044C161.757 65.6161 161.434 65.6264 161.092 65.6381C162.519 65.8443 160.249 65.9829 159.371 66.1569C158.971 66.2357 159.89 66.26 159.554 66.329C159.429 66.3542 158.145 66.3039 158.092 66.3761C157.983 66.5394 158.79 66.7601 160.156 66.8805C160.156 66.8807 160.156 66.8809 160.156 66.881C160.499 66.8703 160.832 66.8573 161.175 66.8461ZM97.8714 66.4015C97.3673 66.1057 95.3469 66.021 99.2285 65.8764C99.0364 65.8181 98.8387 65.7603 98.6466 65.7021C97.992 65.7072 97.3579 65.7123 96.6929 65.7169C94.6976 66.5885 91.0556 65.6049 93.3883 66.2231C93.6429 66.2902 95.1956 66.2152 93.6626 66.3976C93.6647 66.3978 93.6668 66.3979 93.6689 66.3981C95.8091 66.3421 96.0788 66.2373 97.8714 66.4015ZM112.198 66.1952C117.134 65.5728 105.376 65.8479 107.34 66.0131C107.517 66.028 112.582 65.8943 112.198 66.1952ZM72.5858 66.737C74.7988 66.7477 74.9455 66.4119 74.7224 66.2909C74.4989 66.1696 72.9664 66.2922 72.7687 66.2731C72.1243 66.2101 73.491 66.1685 72.6544 66.0822C72.3773 66.0542 68.5225 65.9344 68.3459 65.9489C67.3652 66.0292 68.799 66.3063 68.5184 66.338C67.604 66.442 66.3623 66.2979 66.0971 66.4452C65.5257 66.7596 67.8407 66.4296 68.2316 66.4242C69.4112 66.4093 69.3081 66.5863 70.1915 66.6217C71.0742 66.6571 71.651 66.5965 72.4299 66.609C72.689 66.6132 72.4736 66.7359 72.5858 66.737ZM79.9038 66.0277C77.5922 66.282 83.2204 66.5585 83.888 66.4989C85.8522 66.3221 81.0106 65.9064 79.9038 66.0277ZM153.759 66.0385C151.645 66.2228 156.57 66.3719 157.978 66.2978C157.717 66.2212 154.486 65.975 153.759 66.0385ZM135.956 66.4989C137.899 66.4415 135.322 66.0263 133.701 66.0329C132.75 66.3057 133.644 66.2517 134.704 66.2628C135.763 66.2742 134.439 66.5436 135.956 66.4989ZM48.5805 66.4335C48.9998 66.4378 55.7575 66.2123 51.8747 66.1186C51.5786 66.1116 46.8482 66.1513 46.4896 66.1933C45.7682 66.2782 47.4998 66.4214 48.5805 66.4335ZM126.634 66.902C127.663 66.666 128.675 66.6691 127.729 66.392C127.728 66.392 127.727 66.392 127.725 66.392C130.328 66.3071 130.444 66.8741 131.005 66.862C132.968 66.8194 131.108 66.4159 132.339 66.2834C129.476 66.4079 130.297 66.1358 128.12 66.1186C127.632 66.1148 125.677 66.2773 125.391 66.3786C125.106 66.4799 126.104 66.7835 126.634 66.902ZM39.0345 66.4923C41.3155 66.5828 43.4038 66.2002 40.2399 66.1396C38.6966 66.1097 37.6419 66.4373 39.0345 66.4923ZM219.588 13.6633C219.488 14.0114 219.388 14.37 219.288 14.7441C219.264 13.9026 219.239 13.0603 219.215 12.2189C219.246 12.884 219.278 13.55 219.309 14.2203C219.344 12.6407 219.526 11.9184 219.588 13.6592C219.588 13.6606 219.588 13.6619 219.588 13.6633ZM170.133 1.33554C169.426 1.23895 168.034 1.53804 168.211 1.56137C169.54 1.73522 171.114 1.46946 170.133 1.33554ZM156.883 66.9469C159.51 66.9888 157.703 66.5025 156.093 66.4691C157.078 66.5621 155.392 66.9231 156.883 66.9469ZM189.911 1.35922C190.147 1.40103 190.384 1.44284 190.649 1.48471C189.818 1.42657 189.674 1.38747 189.911 1.35922ZM49.655 66.8629C50.0561 66.9003 53.0225 66.9311 53.4231 66.8849C54.2545 66.7879 51.9413 66.5194 50.5799 66.602C50.4292 66.6108 49.256 66.8256 49.6613 66.8629C49.6592 66.8629 49.6571 66.8629 49.655 66.8629ZM219.584 9.97504C219.581 9.9808 219.576 9.979 219.57 9.97092C219.575 9.97329 219.579 9.97156 219.584 9.97504ZM111.086 0.731533C111.102 0.739077 111.111 0.746564 111.109 0.75375C111.103 0.746693 111.09 0.73927 111.086 0.731533ZM70.576 67.2758C71.5633 67.7391 73.8392 67.4927 72.0413 67.2636C71.9406 67.2515 70.8154 67.2767 70.576 67.2758Z" fill="#9C6B4B"/>
</svg>
