<svg width="64" height="60" viewBox="0 0 64 60" fill="none" xmlns="http://www.w3.org/2000/svg">
<rect width="64" height="60" rx="10" fill="#6B4631"/>
<path d="M18.1278 10.3522C18.985 12.6583 22.4722 18.1421 29.5639 21.6289C30.3308 21.0294 32.3789 20.1899 34.4361 21.6289C37.4361 20.13 43.9233 15.7761 45.8722 10.3522C45.218 11.044 43.8015 12.4277 43.3684 12.4277C42.8271 12.4277 42.5564 12.6352 41.6767 11.805C40.797 10.9748 37.8325 8.00001 31.4586 8C26.3835 8 22.3233 11.805 22.3233 11.805C22.3233 11.805 21.4571 12.7044 20.6992 12.4277C19.9414 12.1509 18.6692 10.9287 18.1278 10.3522Z" fill="#B9E5E5"/>
<path d="M19.4135 16.1635L21.7143 19C20.5639 21.1447 19.7519 25.8491 26.2481 26.7484V28.7547L21.4436 31.5912L24.8271 33.4591C25.8195 33.9203 28.1023 35.922 29.2932 40.239L32.0677 49.1635L34.7068 40.239C35.3835 38.1635 37.2511 33.9019 39.3083 33.4591L42.6241 31.5912L37.8195 28.7547V26.7484C40.391 26.5639 44.8707 24.756 42.218 19L44.5865 16.1635C45.218 16.9707 46.5083 19.4704 46.6165 23.0126C46.6165 29.3774 46.1564 36.1019 50 43.9057L45.0602 39.8239L41.5414 45.8428L37.8195 42.1069L32.0677 52L26.0451 42.1069L22.391 45.6352L18.8045 39.8239L14 43.8365C15.2632 41.6688 17.7489 35.2164 17.5865 26.7484C17.3383 24.5115 17.3564 19.2629 19.4135 16.1635Z" fill="#B9E5E5"/>
<path d="M26.4511 31.5912C27.7368 32.26 30.6466 35.0642 32 40.9308C32.7889 38.1635 35.0167 32.4214 37.6165 31.5912L35.4511 30.1384C35.4962 27.7862 34.8692 23.1094 32 23.2201C29.1308 23.3308 28.5489 27.8784 28.6165 30.1384L26.4511 31.5912Z" fill="#B9E5E5"/>
<path d="M40.391 20.7987L35.8571 23.6352C36.2632 24.0503 37.9549 24.5015 39.5789 23.6352C41.1353 22.805 40.7293 21.2138 40.391 20.7987Z" fill="#B9E5E5"/>
<path d="M23.6767 20.6604L28.0752 23.566C27.7143 23.935 26.5594 24.5208 24.8271 23.912C23.0947 23.3031 23.3383 21.4906 23.6767 20.6604Z" fill="#B9E5E5"/>
</svg>
